<?xml version="1.0" encoding="UTF-8" standalone="no"?>
<!-- Created with Inkscape (http://www.inkscape.org/) -->

<svg
   xmlns:dc="http://purl.org/dc/elements/1.1/"
   xmlns:cc="http://creativecommons.org/ns#"
   xmlns:rdf="http://www.w3.org/1999/02/22-rdf-syntax-ns#"
   xmlns:svg="http://www.w3.org/2000/svg"
   xmlns="http://www.w3.org/2000/svg"
   xmlns:sodipodi="http://sodipodi.sourceforge.net/DTD/sodipodi-0.dtd"
   xmlns:inkscape="http://www.inkscape.org/namespaces/inkscape"
   width="48"
   height="48"
   id="svg2"
   sodipodi:version="0.32"
   inkscape:version="0.91 r13725"
   sodipodi:docname="mo.svg"
   inkscape:output_extension="org.inkscape.output.svg.inkscape"
   version="1.1">
  <defs
     id="defs4">
    <inkscape:perspective
       sodipodi:type="inkscape:persp3d"
       inkscape:vp_x="0 : 526.18109 : 1"
       inkscape:vp_y="0 : 1000 : 0"
       inkscape:vp_z="744.09448 : 526.18109 : 1"
       inkscape:persp3d-origin="372.04724 : 350.78739 : 1"
       id="perspective10" />
    <inkscape:perspective
       id="perspective2464"
       inkscape:persp3d-origin="372.04724 : 350.78739 : 1"
       inkscape:vp_z="744.09448 : 526.18109 : 1"
       inkscape:vp_y="0 : 1000 : 0"
       inkscape:vp_x="0 : 526.18109 : 1"
       sodipodi:type="inkscape:persp3d" />
  </defs>
  <sodipodi:namedview
     id="base"
     pagecolor="#ffffff"
     bordercolor="#666666"
     borderopacity="1.0"
     inkscape:pageopacity="0.0"
     inkscape:pageshadow="2"
     inkscape:zoom="5.5125393"
     inkscape:cx="23.231072"
     inkscape:cy="25.177062"
     inkscape:document-units="px"
     inkscape:current-layer="layer1"
     showgrid="false"
     inkscape:window-width="1280"
     inkscape:window-height="945"
     inkscape:window-x="0"
     inkscape:window-y="27"
     units="px"
     inkscape:window-maximized="0" />
  <metadata
     id="metadata7">
    <rdf:RDF>
      <cc:Work
         rdf:about="">
        <dc:format>image/svg+xml</dc:format>
        <dc:type
           rdf:resource="http://purl.org/dc/dcmitype/StillImage" />
        <dc:title></dc:title>
      </cc:Work>
    </rdf:RDF>
  </metadata>
  <g
     inkscape:label="Capa 1"
     inkscape:groupmode="layer"
     id="layer1"
     transform="translate(0,-1004.3622)">
    <g
       id="g2488"
       transform="matrix(0.16386859,0,0,0.16386859,-33.486485,941.04663)"
       inkscape:export-xdpi="294.95999"
       inkscape:export-ydpi="294.95999">
      <path
         style="fill:#e9d8a1"
         d="m 369.5,619.66245 c -2.75,-0.18658 -15.27679,-1.94164 -27.83732,-3.90013 -21.11047,-3.29163 -24.66437,-4.16156 -47,-11.50468 -23.74513,-7.80652 -24.18639,-7.90882 -25.53465,-5.91963 -1.78378,2.63173 -3.15001,2.55346 -9.23281,-0.52893 l -5.0383,-2.55309 -4.45661,2.61175 c -2.45115,1.43646 -5.0022,3.48535 -5.66901,4.55309 -1.62294,2.59874 -4.15023,2.45578 -5.45663,-0.30865 C 238.07431,599.57213 236,588.04236 236,583.91036 c 0,-1.49667 -1.34376,-4.59479 -2.98613,-6.8847 -4.53025,-6.31641 -5.36196,-12.53481 -2.87912,-21.52638 2.23776,-8.10403 5.32289,-15.81416 7.25737,-18.1371 1.67088,-2.00641 4.02218,-17.07305 3.78734,-24.26846 -0.21374,-6.5487 2.44422,-15.56756 6.5014,-22.06025 3.92214,-6.27658 21.37994,-23.15325 26.93423,-26.03766 2.6867,-1.39523 5.91135,-3.64899 7.16589,-5.00834 3.86861,-4.19183 10.84783,-7.62488 19.46806,-9.57625 4.53803,-1.02728 10.05096,-2.56382 12.25096,-3.41452 4.57449,-1.76888 16.18133,-2.09475 24.4398,-0.68616 21.05375,3.59099 21.37516,3.69788 39.0602,12.9893 8.83295,4.64069 12.01092,7.02845 20.01663,15.03943 15.5168,15.52704 23.68764,30.0979 28.02691,49.9797 1.3498,6.18458 3.52867,12.01025 6.88302,18.40325 2.69942,5.14476 5.21917,11.42892 5.59945,13.96481 0.38028,2.53589 1.34784,5.15549 2.15014,5.82134 0.8023,0.66585 5.65608,3.10119 10.78617,5.41186 15.57662,7.01595 21.36799,11.75793 22.2326,18.20406 0.45403,3.38503 0.082,4.4224 -2.73796,7.63413 -5.36389,6.10913 -28.00661,15.76189 -46.95696,20.01811 -13.03102,2.92674 -43.38021,7.03179 -47.35595,6.4054 -0.62923,-0.0991 -3.39405,-0.3329 -6.14405,-0.51948 z"
         id="path2502"
         inkscape:connector-curvature="0" />
      <path
         style="fill:#e9c760"
         d="M 361.91667,617.9486 C 361.6875,617.72113 358.125,617.05142 354,616.46036 c -22.55095,-3.23128 -38.06203,-6.10313 -42.5,-7.86879 -6.66397,-2.65128 -40.94991,-13.22939 -42.87932,-13.22939 -0.83671,0 -2.01515,0.7875 -2.61874,1.75 -0.95708,1.52618 -1.02124,1.47002 -0.50163,-0.4391 0.85908,-3.15642 -1.97878,-4.28563 -10.12352,-4.02823 -5.62725,0.17784 -6.83521,-0.0552 -6.64796,-1.28267 0.12585,-0.825 -1.93222,-3.075 -4.5735,-5 -2.64127,-1.925 -6.3847,-5.525 -8.31871,-8 -6.50049,-8.31882 -7.29064,-14.48393 -3.38843,-26.43804 2.99818,-9.18467 4.22577,-11.56196 5.97036,-11.56196 1.59105,0 2.54882,-3.05885 2.5678,-8.20078 0.0211,-5.70522 1.94761,-13.57869 5.27771,-21.56895 3.14587,-7.54823 2.99753,-10.52038 -0.31022,-6.21533 l -1.90937,2.48506 -0.0214,-2.5 c -0.0558,-6.50259 9.2056,-20.50604 16.57361,-25.05972 1.87186,-1.15687 3.40337,-2.69508 3.40337,-3.41825 0,-1.93705 6.32175,-7.14982 12.28692,-10.13152 2.86719,-1.43317 6.21189,-3.84817 7.43267,-5.36667 3.02274,-3.75993 12.0874,-7.8746 19.04223,-8.64373 3.156,-0.34902 7.163,-1.49074 8.90444,-2.53715 4.64331,-2.79011 14.45188,-3.40429 23.90119,-1.49661 4.3629,0.88081 11.2917,2.07529 15.39732,2.65441 5.79126,0.81688 9.92335,2.29908 18.4314,6.6114 6.03164,3.05715 13.2475,7.02542 16.03523,8.81837 11.50849,7.40177 26.30605,25.95764 31.96754,40.08673 1.53889,3.84051 4.0711,11.83122 5.62714,17.75714 1.84744,7.03566 4.27652,13.28169 7.00019,18 2.29407,3.97408 4.92825,10.3756 5.85374,14.2256 l 1.68271,7 7.01438,3.5 c 3.8579,1.925 9.37164,4.58178 12.25275,5.90396 2.88112,1.32218 7.24804,4.17292 9.70427,6.33499 3.98944,3.51165 4.46588,4.39098 4.46588,8.24244 0,3.68181 -0.51518,4.76376 -3.5278,7.40888 -14.12255,12.39976 -58.77016,24.09053 -92.05553,24.10431 -7.19584,0.003 -13.27084,-0.18069 -13.5,-0.40816 z"
         id="path2500"
         inkscape:connector-curvature="0" />
      <path
         style="fill:#e0b751"
         d="m 369.5,617.71285 c -2.2,-0.17222 -6.925,-0.76459 -10.5,-1.31638 -3.575,-0.5518 -14.375,-2.17526 -24,-3.60771 -10.98564,-1.63494 -20.478,-3.67002 -25.5,-5.46699 -12.93144,-4.62711 -37.47906,-11.95959 -40.03822,-11.95959 -1.29932,0 -2.85625,0.7875 -3.45984,1.75 -0.97081,1.54807 -1.03163,1.50667 -0.52711,-0.35882 0.91255,-3.37423 -1.4697,-4.40368 -9.57093,-4.1359 -6.10126,0.20166 -7.36596,-0.0192 -7.18827,-1.25528 0.11859,-0.825 -1.60569,-2.85 -3.83174,-4.5 C 236.8812,580.9304 230,569.84392 230,562.88235 c 0,-2.64908 4.14147,-16.04747 6.07983,-19.66933 1.07911,-2.01635 1.29075,-2.06453 2.40068,-0.5466 1.74746,2.38979 2.51949,1.04676 2.51949,-4.38294 0,-2.60995 0.64955,-8.14026 1.44345,-12.28958 1.21784,-6.36508 2.63853,-10.40036 8.23193,-23.38172 0.69737,-1.61848 -2.86708,-1.6583 -4.47538,-0.05 -2.00304,2.00304 -1.44864,-1.12405 1.2126,-6.83956 4.11439,-8.83647 11.65794,-15.83098 20.46968,-18.97986 3.39211,-1.21217 3.44622,-1.29553 0.86772,-1.33669 -1.5125,-0.0241 -2.75,-0.45389 -2.75,-0.955 0,-1.76116 6.56901,-6.43658 13.12339,-9.34042 4.51133,-1.99869 6.58405,-3.46281 6.5,-4.59144 -0.22828,-3.06559 10.46842,-7.4352 19.47793,-7.95675 6.97566,-0.40382 17.07986,0.78081 21.664,2.53991 0.93492,0.35876 1.30634,0.18477 0.92449,-0.43308 -0.35106,-0.56802 -2.78738,-1.59261 -5.41405,-2.27686 -2.62667,-0.68425 -5.56979,-1.45338 -6.54028,-1.70917 -4.38356,-1.15537 0.24206,-2.32108 9.21024,-2.32108 9.16654,0 19.27678,2.03328 27.46832,5.52419 1.45672,0.62079 1.71824,0.49886 1.09453,-0.51032 -1.2342,-1.99699 5.82909,-0.61143 11.43538,2.2432 21.06752,10.72723 23.77614,12.42901 30.60131,19.22638 14.93031,14.86949 25.3881,35.4905 21.10204,41.60971 -1.38391,1.97581 -1.3323,2.41388 0.59082,5.01504 1.45948,1.97405 2.46573,2.55255 3.27366,1.88203 0.84587,-0.70202 1.64113,0.74665 2.89347,5.27084 0.94984,3.43141 3.01865,8.26393 4.59736,10.73893 4.46892,7.00613 7.97689,15.19202 7.98762,18.63922 0.0143,4.58565 2.42478,6.69992 12.80468,11.23105 C 464.11032,575.91807 470,580.71371 470,586.49859 c 0,4.97878 -3.9423,8.73321 -14.5,13.80898 -17.24633,8.29143 -37.46466,13.6653 -62.378,16.57957 -12.12917,1.41882 -14.83639,1.51346 -23.622,0.82571 z m 83.71338,-21.17119 c 1.91125,-0.75848 1.13325,-2.83415 -1.21338,-3.23725 -0.825,-0.14172 -2.29899,0.0909 -3.27552,0.51683 -1.38176,0.60274 -1.52094,1.08127 -0.62756,2.15772 1.23973,1.49378 2.43815,1.62558 5.11646,0.5627 z M 441.1882,592.8545 c -0.17149,-1.53884 0.27851,-3.17225 1,-3.6298 2.07859,-1.31817 5.81885,-0.99832 7.45466,0.63748 0.825,0.825 2.93035,1.50614 4.67857,1.51365 1.74821,0.008 4.12399,0.26746 5.27949,0.57765 1.16426,0.31255 2.72469,-0.0529 3.5,-0.81961 0.7695,-0.76098 2.18658,-1.6818 3.14908,-2.04626 0.98983,-0.37481 1.75,-1.69493 1.75,-3.03906 0,-2.88563 -1.85531,-4.61134 -8.8495,-8.2313 -5.04347,-2.61034 -5.50113,-2.6792 -8,-1.20365 -1.45777,0.8608 -4.36911,1.88729 -6.46963,2.28109 -2.10052,0.39381 -4.34626,1.56009 -4.99054,2.59175 -0.64428,1.03166 -1.68358,1.87574 -2.30956,1.87574 -0.62597,0 -1.70173,1.36066 -2.39059,3.0237 -0.68885,1.66303 -1.98094,3.44935 -2.87132,3.96959 -1.15381,0.67417 -1.22942,0.95463 -0.26322,0.9763 0.74561,0.0167 2.71476,1.17403 4.37589,2.57178 3.65286,3.07367 5.37548,2.70909 4.95667,-1.04905 z M 314.46489,539.94894 c -0.9322,-1.42272 -2.10899,-2.58676 -2.61508,-2.58676 -1.07582,0 0.95029,4.1758 2.52093,5.19563 1.8255,1.18531 1.8649,0.0936 0.0942,-2.60887 z m -9.64534,-1.75843 C 304.41518,535.44241 302,534.51873 302,537.11218 c 0,2.07546 0.80817,3.25 2.23622,3.25 0.49658,0 0.75908,-0.97725 0.58333,-2.17167 z M 340,516.86218 c 0,-0.825 -0.42344,-1.5 -0.94098,-1.5 -1.26098,0 -2.1641,1.56159 -1.36517,2.36052 1.12619,1.12618 2.30615,0.68589 2.30615,-0.86052 z m 70.6011,-12.19442 c -1.84075,-3.39532 -2.03442,-1.27986 -0.38401,4.19442 1.11299,3.69169 1.23288,3.79232 1.55548,1.30558 0.19225,-1.48193 -0.33491,-3.95693 -1.17147,-5.5 z"
         id="path2498"
         inkscape:connector-curvature="0" />
      <path
         style="fill:#d5a82f"
         d="M 362.91667,616.9486 C 362.6875,616.72113 359.125,616.04653 355,615.4495 c -25.79853,-3.73397 -39.115,-6.13973 -43.5,-7.85872 -2.75,-1.07804 -13.55,-4.54041 -24,-7.69415 -10.45,-3.15373 -20.47777,-6.36415 -22.28393,-7.13426 -1.80616,-0.7701 -4.40862,-1.40019 -5.78324,-1.40019 -6.07236,0 -20.26107,-9.93569 -24.90122,-17.43716 -2.53507,-4.09831 -3.02222,-5.89701 -2.97425,-10.98194 0.0624,-6.61063 2.5186,-16.08543 4.74793,-18.31476 1.19682,-1.19682 1.5793,-0.95898 2.66222,1.65541 1.93424,4.66967 3.03249,2.72356 3.03249,-5.3736 0,-13.28483 3.99991,-26.99254 11.22123,-38.45516 l 2.1465,-3.40721 -4.18386,0.66903 c -4.92181,0.78703 -5.19101,0.0299 -2.08706,-5.86942 2.88375,-5.48082 9.46159,-12.05929 14.33907,-14.34041 6.24781,-2.92202 11.29981,-3.38822 19.05285,-1.75822 3.84381,0.80812 7.15494,1.3031 7.35809,1.09996 1.40116,-1.40116 -16.67682,-6.14947 -19.41382,-5.09918 -2.85975,1.09739 -2.33278,-1.36089 0.79827,-3.72383 9.82892,-7.41772 21.8657,-8.60924 39.01873,-3.86247 5.2616,1.45605 4.82957,-0.43595 -0.65336,-2.86131 -2.69965,-1.19419 -7.93557,-2.19854 -13.53264,-2.59583 -10.49158,-0.74472 -11.06345,-1.72654 -2.98875,-5.13126 4.85597,-2.04753 6.63051,-2.24319 16.92475,-1.8662 9.15377,0.33523 12.92066,0.94539 18.46334,2.99068 3.82984,1.41324 7.1443,2.38857 7.36547,2.16741 0.89974,-0.89974 -9.28999,-6.41568 -13.89074,-7.51939 C 319.22213,450.69578 317,449.75758 317,449.26244 c 0,-1.61819 14.50432,-0.94521 22.23356,1.0316 4.15442,1.06252 10.28857,3.31252 13.63145,5 6.99405,3.53058 8.65412,3.85031 5.24333,1.00987 -1.31542,-1.09546 -2.10515,-2.27825 -1.75497,-2.62843 1.14664,-1.14665 8.51783,1.92114 16.40615,6.82801 4.25727,2.6482 10.06495,5.98444 12.90596,7.41385 2.84102,1.42942 7.85248,5.39717 11.13658,8.81722 7.52068,7.83201 16.21175,21.01463 16.15631,24.50593 -0.0411,2.5876 -0.0866,2.57076 -3.50002,-1.29495 -1.90212,-2.15415 -3.6882,-3.68685 -3.96905,-3.40599 -0.28086,0.28086 0.10404,2.26835 0.85534,4.41664 0.75129,2.1483 2.15194,7.50599 3.11254,11.90599 0.96061,4.4 2.60072,9.40312 3.64469,11.11803 2.22152,3.64926 2.5318,9.92483 0.52872,10.69349 -0.79756,0.30605 -1.63104,2.75187 -1.99594,5.85698 -1.0556,8.98286 -3.09398,20.26892 -3.87891,21.47672 -0.91798,1.41253 1.34014,2.35994 5.57605,2.33947 4.63594,-0.0224 6.15681,-1.22945 4.62986,-3.67449 -0.98513,-1.57745 -0.92361,-2.62352 0.31664,-5.38402 1.5492,-3.44815 1.92437,-4.8768 3.91103,-14.89355 l 1.08436,-5.46738 2.90353,3.46738 c 4.27709,5.10767 8.69538,14.52622 9.43704,20.11709 0.7621,5.74503 2.00109,6.8164 13.65778,11.81006 4.27462,1.83122 7.59923,3.50229 7.38804,3.71348 -0.2112,0.2112 -3.92335,-0.97889 -8.24922,-2.64463 -4.32588,-1.66575 -8.15548,-3.02863 -8.51023,-3.02863 -0.35475,0 -0.93332,1.6875 -1.2857,3.75 -0.35238,2.0625 -2.09739,6.45 -3.87781,9.75 -2.53339,4.69565 -4.35027,6.65218 -8.35765,9 -4.3947,2.57475 -5.57565,3.97363 -8.33126,9.86874 -1.8158,3.88455 -2.83349,7.24597 -2.34243,7.73703 0.49105,0.49105 3.45895,0.26123 6.83126,-0.52899 6.68355,-1.56612 18.28833,-4.34759 23.20592,-5.56208 5.58917,-1.38034 2.55307,0.72627 -5.51146,3.82414 -8.82214,3.38891 -25.82029,7.33772 -41.35983,9.60823 -9.50508,1.38881 -34.89317,2.19331 -35.95499,1.13935 z M 307,539.93974 c 0,-3.56393 -1.5163,-5.57756 -4.2,-5.57756 -2.29391,0 -2.40873,3.92216 -0.23773,8.12042 1.27301,2.46173 1.82848,2.80018 3,1.8279 C 306.35302,543.65423 307,541.68739 307,539.93974 Z m 10,3.54839 c 0,-1.24943 -4.98205,-9.99682 -6.08022,-10.67553 -1.84704,-1.14154 -0.88097,6.3292 1.1528,8.91472 1.99072,2.53079 4.92742,3.58022 4.92742,1.76081 z m -0.39583,-16.85512 c -0.33229,-0.33229 -0.56864,0.25834 -0.52522,1.3125 0.048,1.16495 0.28494,1.4019 0.60416,0.60417 0.28888,-0.72187 0.25335,-1.58437 -0.0789,-1.91667 z M 341,518.44397 c 0,-2.05149 -1.29673,-4.08179 -2.60699,-4.08179 -1.4174,0 -1.94027,3.11941 -0.72634,4.33333 0.98607,0.98608 3.33333,0.80895 3.33333,-0.25154 z"
         id="path2496"
         inkscape:connector-curvature="0" />
      <path
         style="fill:#c99204"
         d="m 361,615.24564 c -3.025,-0.48343 -9.325,-1.53028 -14,-2.32634 -4.675,-0.79606 -12.775,-1.97332 -18,-2.61614 -6.67787,-0.82157 -16.92665,-3.52419 -34.5,-9.09772 -13.75,-4.36093 -28.6,-9.06498 -33,-10.45344 -9.69293,-3.05871 -14.82833,-6.25113 -16.64016,-10.34434 -0.74772,-1.6892 -3.22177,-4.24842 -5.49789,-5.68714 -4.2433,-2.68217 -8.39848,-8.67596 -8.31515,-11.99449 0.0781,-3.10808 4.57828,-15.73888 5.74633,-16.12823 1.1123,-0.37076 2.48571,4.93307 2.62811,10.14918 0.0748,2.74088 2.80713,5.72016 4.07928,4.44802 0.32804,-0.32805 1.02831,-4.77074 1.55615,-9.87265 0.52783,-5.10191 1.63102,-11.53677 2.45152,-14.29969 0.82049,-2.76291 1.49751,-7.07931 1.50448,-9.59198 0.008,-3.05435 0.98673,-6.48916 2.95162,-10.36352 3.01088,-5.93682 8.48967,-13.58303 10.74649,-14.99781 4.45765,-2.79446 3.32674,-7.70717 -1.77421,-7.70717 -3.64046,0 -4.58971,-1.62081 -2.37954,-4.06301 0.96412,-1.06535 1.45182,-1.93699 1.08377,-1.93699 -0.36805,0 0.51825,-1.79432 1.96955,-3.98738 2.77297,-4.19024 6.72852,-5.99607 13.15803,-6.00704 3.20398,-0.005 15.12909,2.86434 20.69365,4.97998 3.56922,1.35702 4.05205,0.8393 2.37886,-2.55079 -1.10297,-2.23475 -2.93778,-3.21352 -10.34089,-5.51631 -4.95,-1.53974 -10.0125,-2.82628 -11.25,-2.85899 -7.75289,-0.20491 7.16345,-8.05947 15.30547,-8.05947 5.31673,0 17.55238,3.11534 24.31671,6.19132 3.50469,1.59371 6.59644,2.67339 6.87055,2.39928 0.27411,-0.2741 -0.99493,-2.38382 -2.82007,-4.68825 -3.64632,-4.60386 -9.10955,-7.48527 -15.96514,-8.42032 -2.45164,-0.33439 -5.58252,-0.84218 -6.95752,-1.12842 -2.45103,-0.51024 -2.43409,-0.54819 0.86481,-1.93702 4.03381,-1.69824 9.32462,-1.7866 19.81283,-0.33088 9.10851,1.26421 19.21206,5.29813 27.58521,11.01359 3.25935,2.22481 6.15679,3.8144 6.43876,3.53243 0.68095,-0.68095 -7.8215,-9.11033 -14.70161,-14.57527 -5.41118,-4.29816 -5.4455,-4.35811 -2.125,-3.71258 1.85625,0.36086 4.44673,0.65612 5.75661,0.65612 1.30989,0 3.38007,1.14833 4.60041,2.55184 1.6281,1.87247 2.83931,2.39609 4.54961,1.96683 3.81633,-0.95784 17.9133,8.2289 25.67217,16.73009 9.80688,10.74514 14.87223,22.02847 18.60421,41.44185 1.24304,6.46617 2.72122,8.03309 5.94869,6.3058 1.024,-0.54802 3.4664,-0.99641 5.42756,-0.99641 2.88764,0 3.56574,0.37672 3.56574,1.98095 0,1.36289 -0.858,2.15015 -2.75,2.52327 -17.14066,3.38032 -16.12143,2.38538 -15.59564,15.22391 0.5972,14.58219 1.03756,16.83641 3.89033,19.9146 2.68852,2.90095 2.99182,4.48628 1.42013,7.42301 -0.91355,1.70698 -0.69224,1.93426 1.88336,1.93426 2.07755,0 3.06927,0.57632 3.44157,2 0.29612,1.13237 1.36401,2 2.46164,2 3.35586,0 5.46646,3.32186 4.70146,7.39962 l -0.67543,3.60038 4.54619,0 c 2.5004,0 5.81299,-0.4776 7.36129,-1.06133 3.3526,-1.26398 9.3151,-6.79105 9.3151,-8.63484 0,-1.53035 -2.60235,-1.75626 -3.5,-0.30383 -0.33992,0.55 -1.30223,1 -2.13847,1 -1.20137,0 -1.36426,-0.68203 -0.7762,-3.25 0.40933,-1.7875 0.69245,-4.11193 0.62914,-5.16541 -0.0633,-1.05348 0.70654,-3.07848 1.71076,-4.5 1.48987,-2.10898 1.74727,-3.96471 1.39879,-10.08459 -0.48907,-8.5888 0.65927,-11.7323 3.10332,-8.49513 2.79459,3.70148 4.77186,8.6974 5.68385,14.36123 2.24778,13.95958 2.2933,13.21752 -1.26002,20.53674 -3.07091,6.32554 -3.84101,7.15071 -9.20837,9.8668 -5.32504,2.69467 -6.12969,3.54627 -8.85638,9.37307 -2.0521,4.38525 -2.87376,7.4834 -2.60201,9.81116 0.45314,3.88152 1.61168,3.4359 -15.68441,6.03287 -10.80759,1.62273 -27.6807,1.80612 -36.5,0.39672 z m -52.97956,-67.91216 c 1.91858,-2.6944 2.54527,-2.9558 5.6776,-2.36817 4.00471,0.75129 5.77482,-0.85107 4.197,-3.79925 -0.64143,-1.19852 -0.61802,-1.80388 0.0698,-1.80388 1.84923,0 1.13665,-11.17951 -1.01486,-15.92192 -2.82135,-6.21887 -4.46678,-4.32551 -3.02394,3.47956 1.43516,7.7635 1.3474,8.35585 -0.8203,5.53627 C 311.11904,529.87196 308,530.10086 308,532.8308 c 0,1.85521 -0.44103,1.89741 -3.01702,0.28868 -5.10362,-3.18726 -7.64473,4.69761 -4.09796,12.71566 2.34294,5.29663 4.15922,5.67802 7.13542,1.49834 z M 381,522.35987 c 0,-3.25907 -4.22831,-7.32786 -4.80442,-4.62316 -0.46709,2.19286 2.62871,8.8521 3.78346,8.13842 C 380.54057,525.52809 381,523.94622 381,522.35987 Z m -39.23266,-3.50791 c 0.34902,-2.59777 -3.30458,-8.48978 -5.26446,-8.48978 -1.23093,0 -1.40098,0.82293 -0.87818,4.25 0.35659,2.3375 1.10802,4.8318 1.66986,5.54289 1.45239,1.83822 4.15657,1.05039 4.47278,-1.30311 z M 364,504.86218 c 0,-1.55556 -0.56667,-2.5 -1.5,-2.5 -1.7742,0 -1.84734,0.48246 -0.46482,3.06574 1.39151,2.60005 1.96482,2.43497 1.96482,-0.56574 z m -9,-12.55902 c 0,-0.58246 -0.45,-0.7809 -1,-0.44098 -0.55,0.33992 -1,0.81648 -1,1.05902 0,0.24254 0.45,0.44098 1,0.44098 0.55,0 1,-0.47656 1,-1.05902 z m 23.42574,-6.27514 c -0.91697,-3.02926 -4.62652,-6.86506 -5.64966,-5.84192 -1.8086,1.8086 3.22643,9.91059 5.34522,8.60111 0.52803,-0.32634 0.66503,-1.56797 0.30444,-2.75919 z m 37.74245,91.69933 c 0.19756,-1.02584 0.80304,-1.75267 1.34551,-1.61517 1.4534,0.3684 1.1994,2.5123 -0.3592,3.03183 -0.8762,0.29207 -1.22022,-0.20206 -0.98631,-1.41666 z M 403.3582,510.58994 c -1.17799,-0.95027 -5.3931,-7.35238 -9.36691,-14.22692 -7.47427,-12.93021 -12.31269,-19.2064 -24.65101,-31.97625 -3.97254,-4.11147 -7.06898,-7.62923 -6.88097,-7.81723 0.70081,-0.70082 10.28033,4.74589 16.28291,9.25811 9.93621,7.46919 16.86055,15.85025 22.33562,27.03453 4.56007,9.31515 7.34351,19.52885 5.30808,19.47776 -0.48725,-0.0122 -1.84973,-0.79973 -3.02772,-1.75 z m 3.00905,-16.41829 C 403.48156,490.98766 393,475.78601 393,474.78481 c 0,-1.64376 7.24966,6.26481 11.67463,12.73571 4.57604,6.69183 5.68738,11.05881 1.69262,6.65113 z"
         id="path2494"
         inkscape:connector-curvature="0" />
      <path
         style="fill:#bc8502"
         d="m 311,604.70553 c -12.77735,-1.67727 -40.4908,-12.55462 -50.5,-19.82092 -1.65,-1.19784 -4.94364,-2.78772 -7.3192,-3.53306 -6.39651,-2.00693 -17.349,-9.16189 -20.00634,-13.06959 -1.61993,-2.38217 -2.17748,-4.33002 -1.83757,-6.41978 0.7131,-4.38408 4.35269,-13.89653 5.45797,-14.26495 1.26993,-0.42331 2.17477,3.23488 2.19149,8.85996 0.01,3.28042 0.57402,5.10214 1.97235,6.36761 1.07728,0.97493 2.67788,3.93788 3.55689,6.58433 1.53528,4.62228 1.79476,4.85388 6.59053,5.88239 2.74578,0.58886 5.59639,1.07066 6.33469,1.07066 1.73257,0 2.99565,-4.96354 1.61455,-6.34464 -1.5917,-1.5917 -1.27723,-4.97196 0.9448,-10.15573 2.33866,-5.45587 3.88696,-5.43446 6.00038,0.083 0.8253,2.15457 2.78056,6.0549 4.34502,8.6674 2.50703,4.18648 3.25028,4.75 6.26499,4.75 3.10071,0 11.164,3.4606 24.38945,10.46746 3.86415,2.04723 4.54321,2.87839 4.80583,5.88221 0.1682,1.92396 0.9557,4.03746 1.75,4.69666 0.79429,0.65921 1.44417,1.95346 1.44417,2.87611 0,2.78653 2.01193,4.14154 4.31738,2.9077 1.94966,-1.04342 15.96323,-0.39278 17.94703,0.83327 0.48536,0.29997 -0.0516,1.19969 -1.19336,1.99938 -2.16837,1.51879 -13.01924,2.47497 -19.07105,1.68056 z m 36.19925,-2.32979 c -1.81541,-0.42995 -3.51975,-1.00073 -3.78744,-1.26841 -0.76261,-0.76262 1.7865,-5.74062 2.66242,-5.19927 1.20666,0.74575 1.79061,-2.39421 1.85132,-9.95484 0.0577,-7.18337 -0.93266,-9.59104 -3.94508,-9.59104 -1.58515,0 -1.75893,-1.01302 -1.62755,-9.48746 0.1426,-9.19836 0.19973,-9.41928 1.87484,-7.25 0.95027,1.2306 1.73777,2.80961 1.75,3.5089 0.0122,0.69929 1.13859,1.78008 2.50302,2.40176 1.36443,0.62167 2.73744,1.939 3.05115,2.9274 0.68069,2.14467 2.24001,2.71129 9.31472,3.3848 4.33606,0.41279 5.82452,0.13182 7.88413,-1.48827 5.5153,-4.33833 10.42793,-2.14268 12.83228,5.73528 2.916,9.55441 3.00238,9.64875 6.48049,7.07727 3.39351,-2.50893 5.34132,-1.56372 4.79111,2.32498 -0.25375,1.79349 -1.05995,2.44438 -3.33466,2.69229 -4.26605,0.46492 -5.64873,2.17305 -1.75902,2.17305 2.78139,0 5.13484,1.45752 4.07108,2.52127 -0.21351,0.21351 -5.24913,0.70248 -11.19027,1.08658 -7.61964,0.49262 -10.95434,1.09518 -11.31892,2.04526 -0.32477,0.84635 -2.1494,1.34689 -4.90986,1.34689 -3.138,0 -4.39301,0.4076 -4.39301,1.42676 0,1.57874 -5.39688,4.63162 -7.90364,4.47088 -0.878,-0.0563 -3.0817,-0.45414 -4.89711,-0.88408 z m 21.28263,-25.98424 c 0.71793,-1.16163 -3.91506,-2.49767 -5.42504,-1.56445 -0.58126,0.35924 -1.05684,1.07661 -1.05684,1.59415 0,1.24382 5.71097,1.21765 6.48188,-0.0297 z M 396,583.4212 c 0,-0.58246 0.45,-1.05902 1,-1.05902 0.55,0 1,0.19844 1,0.44098 0,0.24254 -0.45,0.7191 -1,1.05902 -0.55,0.33992 -1,0.14148 -1,-0.44098 z m 35.41229,-8.20094 c -0.79606,-1.28804 -2.29247,-12.84955 -3.02324,-23.35808 l -0.48679,-7 2.47068,2.71486 c 3.73417,4.10323 7.15427,24.24004 4.63298,27.27801 -1.49376,1.79987 -2.63527,1.91588 -3.59363,0.36521 z M 370,551.36218 c 0,-0.55 0.45,-1 1,-1 0.55,0 1,0.45 1,1 0,0.55 -0.45,1 -1,1 -0.55,0 -1,-0.45 -1,-1 z m 11.10129,-9.23696 -3.19649,-7.23696 -4.12545,4.46782 c -2.40735,2.60715 -4.29631,3.95522 -4.53573,3.23696 -0.2419,-0.72569 -2.21516,-1.23086 -4.8079,-1.23086 -3.82933,0 -4.47684,-0.31567 -5.01071,-2.44277 -0.34821,-1.38735 -1.47011,-2.57552 -2.59665,-2.75 -1.43351,-0.22204 -2.53768,-1.95421 -3.98187,-6.24657 -1.09908,-3.26664 -2.63916,-6.85426 -3.4224,-7.97251 C 348.64084,520.83209 348,519.10707 348,518.11695 c 0,-2.13612 -10.95313,-24.39388 -14.22242,-28.90125 -1.61688,-2.2292 -1.91497,-3.26776 -1.02758,-3.58015 2.05775,-0.72439 1.44645,-2.72849 -2.34813,-7.6981 -1.97898,-2.59178 -3.3708,-4.93968 -3.09294,-5.21754 1.96838,-1.96837 15.03009,9.84519 21.16473,19.14227 2.17749,3.3 4.7102,6.9 5.62824,8 0.91804,1.1 3.5537,5.6 5.85703,10 2.30333,4.4 5.27984,9.14962 6.61447,10.55472 1.33463,1.40509 2.44091,3.20509 2.4584,4 0.0473,2.14709 2.33071,4.77017 5.05892,5.81134 1.89124,0.72175 2.89592,0.47232 4.67252,-1.16006 1.38953,-1.27672 2.61029,-1.71788 3.16221,-1.14276 0.87597,0.91281 4.07455,16.42837 4.07455,19.76469 0,3.48183 -1.81208,1.42333 -4.89871,-5.56489 z m -58.38823,-5.46195 c -0.25747,-0.4406 -1.23801,-3.50109 -2.17897,-6.80109 -4.76538,-16.71241 -7.88896,-21.86139 -23.35566,-38.5 -3.83446,-4.125 -6.62685,-7.63047 -6.20529,-7.78993 0.42156,-0.15947 2.71998,0.3831 5.10762,1.20571 2.38763,0.82261 4.43796,1.39884 4.55628,1.28051 0.11833,-0.11833 -0.3141,-1.91005 -0.96095,-3.98161 -0.78531,-2.51499 -2.08983,-4.17124 -3.92609,-4.98468 -3.37987,-1.49725 -3.54895,-2.73 -0.37443,-2.73 4.18903,0 12.99999,4.68169 17.2328,9.15662 7.59117,8.02541 12.11691,16.31165 16.57281,30.34338 1.17633,3.70426 2.98099,14.78863 3.17482,19.5 0.14317,3.4799 0.11724,3.50173 -4.51541,3.80109 -2.56267,0.1656 -4.87006,-0.0594 -5.12753,-0.5 z M 302.2,528.16218 c -0.66,-0.66 -1.2,-1.82395 -1.2,-2.58655 0,-0.76261 -2.63694,-4.16011 -5.85987,-7.55 -4.33983,-4.56466 -6.00929,-7.13426 -6.43592,-9.90599 l -0.57605,-3.74254 2.68592,1.40326 c 5.32287,2.78095 13.98256,14.55379 14.91025,20.27047 0.57116,3.51968 -1.10928,4.5264 -3.52433,2.11135 z m 84.55,-1.53486 c -2.24005,-0.2305 -3.75,-0.91624 -3.75,-1.70306 0,-2.11531 2.41583,-3.5276 4.91589,-2.87382 2.06197,0.53921 2.23333,0.34556 1.58557,-1.79185 -0.98196,-3.24017 -1.69855,-3.88326 -4.99275,-4.48061 -4.76237,-0.86358 -5.92475,-2.02402 -8.33843,-8.32454 -4.46916,-11.66599 -15.24063,-28.84389 -24.04204,-38.34126 -4.96384,-5.35635 -4.73562,-6.03186 0.68848,-2.03781 6.01298,4.42767 18.57466,18.0509 24.15177,26.19276 2.10791,3.07728 4.66483,6.49505 5.68204,7.59505 2.74551,2.96897 6.52592,9.16646 10.13969,16.62272 3.56695,7.35965 3.87323,8.87728 1.79157,8.87728 -0.78002,0 -2.01752,0.14648 -2.75,0.3255 -0.73249,0.17903 -3.01929,0.15187 -5.08179,-0.0604 z m 14.53083,-22.59808 c -1.64194,-1.87006 -5.28467,-7.20676 -8.09495,-11.85933 -3.14856,-5.2126 -9.20379,-12.76212 -15.77722,-19.67066 -5.86719,-6.1663 -10.44985,-11.42921 -10.1837,-11.69537 0.26616,-0.26615 3.36192,1.42373 6.87948,3.75529 9.54358,6.32583 20.7605,18.10912 25.05876,26.32404 3.51553,6.71895 6.43421,15.21489 5.53561,16.1135 -0.23796,0.23795 -1.77605,-1.09741 -3.41798,-2.96747 z m 0.17211,-17.72822 c -4.96293,-6.44969 -5.64799,-9.42978 -0.81815,-3.55902 3.17429,3.85841 6.75598,9.62018 5.98019,9.62018 -0.27395,0 -2.59687,-2.72752 -5.16204,-6.06116 z"
         id="path2492"
         inkscape:connector-curvature="0" />
      <path
         style="fill:#af7202"
         d="m 293,598.48654 c -8.188,-2.6322 -27.03336,-11.11722 -30.75709,-13.84821 -1.79141,-1.31381 -5.6164,-3.20553 -8.5,-4.20382 -7.17065,-2.48245 -17.00849,-8.41081 -20.14705,-12.14078 -2.80889,-3.33818 -3.41028,-8.01075 -1.26064,-9.79479 0.73437,-0.60947 1.92647,-2.89966 2.64912,-5.0893 0.72265,-2.18964 1.59874,-3.80513 1.94687,-3.58998 0.34813,0.21516 0.74169,2.98943 0.87458,6.16505 0.15588,3.72532 0.94468,6.85662 2.22324,8.82566 1.0899,1.6785 2.76673,4.75253 3.7263,6.83119 1.56278,3.38536 2.44405,3.99366 8.45303,5.83475 3.68959,1.13046 7.17709,1.76568 7.75,1.41161 1.33359,-0.82421 1.36202,-8.80536 0.0361,-10.1313 -1.04929,-1.04929 1.53731,-10.39444 2.87704,-10.39444 0.90156,0 6.1288,12.03909 6.12864,14.11514 -2.2e-4,2.89082 3.66469,6.36845 8.63441,8.19318 8.26954,3.03633 15.86547,8.06374 15.86547,10.50063 0,1.37035 1.36616,3.08603 3.75,4.70942 3.74475,2.55016 4.86229,4.52948 2.5,4.42785 -0.6875,-0.0296 -3.725,-0.84941 -6.75,-1.82186 z m 56.625,-3.24936 c -0.34375,-1.71875 -0.625,-6.89375 -0.625,-11.5 l 0,-8.375 -3.06642,0 c -2.75523,0 -3.03431,-0.27908 -2.75,-2.75 0.38939,-3.38419 2.82289,-3.62145 4.41383,-0.43034 0.63606,1.27581 2.07308,2.96167 3.19339,3.74636 1.34997,0.94556 2.61691,3.88689 3.75669,8.7216 1.60574,6.81119 1.60975,7.50763 0.0605,10.50363 -2.1044,4.06946 -4.17884,4.10432 -4.98295,0.0838 z m 82.53508,-22.11492 c -0.63804,-0.63804 -1.17589,-3.20758 -1.19521,-5.71008 -0.0193,-2.5025 -0.61958,-7.27164 -1.33391,-10.5981 -1.38881,-6.46736 -0.87765,-10.74776 0.99105,-8.29885 1.68413,2.20702 3.23426,8.85717 3.95341,16.96034 0.67616,7.61875 -0.0726,9.98939 -2.41534,7.64669 z m -51.70915,-37.22327 c -1.5724,-3.7633 -1.37875,-6.53681 0.45641,-6.53681 1.09975,0 2.65985,8.76614 1.72626,9.69974 -0.33404,0.33403 -1.31624,-1.08928 -2.18267,-3.16293 z M 320.67178,515.552 c -0.87752,-0.96966 -2.29804,-3.44442 -3.15669,-5.49947 -0.85866,-2.05505 -2.39061,-4.56586 -3.40433,-5.57959 -1.01373,-1.01373 -2.66501,-4.04085 -3.66953,-6.72695 -1.00451,-2.68609 -2.86472,-6.56237 -4.13381,-8.61394 -2.92752,-4.73257 -2.89644,-4.95852 0.44258,-3.21673 1.5125,0.789 3.51588,1.43731 4.45196,1.4407 5.13806,0.0186 16.03406,26.88815 11.93169,29.42356 -0.4765,0.29449 -1.58434,-0.25792 -2.46187,-1.22758 z m 24.65283,-18.73647 c -4.15231,-8.40663 -4.40989,-11.40897 -0.44641,-5.20335 4.4015,6.89144 6.1218,10.33002 6.1218,12.23643 0,3.16864 -1.64066,1.13548 -5.67539,-7.03308 z m 47.7126,-8.55587 c -1.85046,-2.41861 -7.44445,-8.55998 -12.43109,-13.64748 -4.98664,-5.0875 -8.66707,-9.25 -8.17874,-9.25 3.11746,0 18.00212,14.4833 22.92926,22.31098 3.0105,4.78274 1.23463,5.2318 -2.31943,0.5865 z"
         id="path2490"
         inkscape:connector-curvature="0" />
    </g>
  </g>
</svg>
