<?xml version="1.0" encoding="UTF-8" standalone="no"?>
<!-- Created with Inkscape (http://www.inkscape.org/) -->

<svg
   xmlns:dc="http://purl.org/dc/elements/1.1/"
   xmlns:cc="http://creativecommons.org/ns#"
   xmlns:rdf="http://www.w3.org/1999/02/22-rdf-syntax-ns#"
   xmlns:svg="http://www.w3.org/2000/svg"
   xmlns="http://www.w3.org/2000/svg"
   xmlns:sodipodi="http://sodipodi.sourceforge.net/DTD/sodipodi-0.dtd"
   xmlns:inkscape="http://www.inkscape.org/namespaces/inkscape"
   width="48"
   height="48"
   id="svg2628"
   sodipodi:version="0.32"
   inkscape:version="0.91 r13725"
   sodipodi:docname="mt.svg"
   inkscape:output_extension="org.inkscape.output.svg.inkscape"
   version="1.1">
  <defs
     id="defs2630">
    <inkscape:perspective
       sodipodi:type="inkscape:persp3d"
       inkscape:vp_x="0 : 526.18109 : 1"
       inkscape:vp_y="0 : 1000 : 0"
       inkscape:vp_z="744.09448 : 526.18109 : 1"
       inkscape:persp3d-origin="372.04724 : 350.78739 : 1"
       id="perspective2636" />
    <inkscape:perspective
       id="perspective2712"
       inkscape:persp3d-origin="372.04724 : 350.78739 : 1"
       inkscape:vp_z="744.09448 : 526.18109 : 1"
       inkscape:vp_y="0 : 1000 : 0"
       inkscape:vp_x="0 : 526.18109 : 1"
       sodipodi:type="inkscape:persp3d" />
  </defs>
  <sodipodi:namedview
     id="base"
     pagecolor="#ffffff"
     bordercolor="#666666"
     borderopacity="1.0"
     inkscape:pageopacity="0.0"
     inkscape:pageshadow="2"
     inkscape:zoom="2.4230666"
     inkscape:cx="-4.915968"
     inkscape:cy="-3.2685908"
     inkscape:document-units="px"
     inkscape:current-layer="layer1"
     showgrid="false"
     inkscape:window-width="1280"
     inkscape:window-height="945"
     inkscape:window-x="0"
     inkscape:window-y="27"
     units="px"
     inkscape:window-maximized="0" />
  <metadata
     id="metadata2633">
    <rdf:RDF>
      <cc:Work
         rdf:about="">
        <dc:format>image/svg+xml</dc:format>
        <dc:type
           rdf:resource="http://purl.org/dc/dcmitype/StillImage" />
        <dc:title></dc:title>
      </cc:Work>
    </rdf:RDF>
  </metadata>
  <g
     inkscape:label="Capa 1"
     inkscape:groupmode="layer"
     id="layer1"
     transform="translate(0,-1004.3622)">
    <g
       id="g2718"
       transform="matrix(0.12691606,0,0,0.12691606,-19.796762,962.13382)"
       style="opacity:0.95">
      <path
         style="fill:#d28671"
         d="m 357.97127,626.54401 c -9.0908,-4.50001 -23.9408,-11.75157 -33,-16.1146 -9.0592,-4.36302 -28.39627,-13.7425 -42.97127,-20.84329 -14.575,-7.10079 -32.575,-15.8489 -40,-19.44024 -51.93719,-25.1211 -51.71286,-25.00352 -52.32003,-27.42265 -0.66454,-2.64776 -2.17997,-53.4568 -2.17997,-73.0898 0,-12.24876 0.0944,-12.82309 2.50322,-15.23049 1.87984,-1.87873 9.22627,-4.61148 29.5,-10.9735 14.84823,-4.65947 32.84678,-10.49088 39.99678,-12.95869 27.75029,-9.57798 50.22802,-16.60857 53.09979,-16.60857 1.07021,0 5.37569,1.32072 9.56775,2.93494 4.19205,1.61421 9.35679,3.25441 11.47719,3.64488 2.1204,0.39047 4.92846,1.54475 6.24013,2.56506 1.31167,1.02032 3.47152,1.85512 4.79966,1.85512 1.32814,0 3.62995,0.62719 5.11514,1.39375 3.75045,1.93575 53.96611,20.18039 57.93887,21.05068 1.7812,0.39019 3.49525,1.12482 3.80902,1.63251 0.31377,0.50768 1.57378,0.92306 2.80003,0.92306 1.22624,0 3.81852,0.81011 5.76061,1.80024 3.84014,1.95782 11.95542,4.88333 21.39181,7.71164 3.3,0.98908 7.35,2.36727 9,3.06264 9.78218,4.12256 18.77192,7.42548 20.21031,7.42548 0.91203,0 3.48782,0.8674 5.72397,1.92755 5.10362,2.41961 22.98642,9.07245 24.3867,9.07245 0.57434,0 1.26635,0.7875 1.53782,1.75 0.27146,0.9625 0.38686,21.70889 0.25645,46.10309 l -0.23713,44.35309 -2.43906,1.8597 C 498.59758,575.9509 481.975,584.29968 463,593.48091 c -18.975,9.18122 -45.62149,22.24797 -59.21443,29.0372 -13.59293,6.78924 -25.74293,12.31339 -27,12.2759 -1.25706,-0.0375 -9.7235,-3.74999 -18.8143,-8.25 z M 399.5,409.86218 c -0.33992,-0.55 -0.14148,-1 0.44098,-1 0.58246,0 1.05902,0.45 1.05902,1 0,0.55 -0.19844,1 -0.44098,1 -0.24254,0 -0.7191,-0.45 -1.05902,-1 z"
         id="path2732"
         inkscape:connector-curvature="0" />
      <path
         style="fill:#c76651"
         d="m 374.24641,631.91571 c -1.36275,-1.1368 -2.15335,-2.78746 -2,-4.17574 0.16715,-1.51324 -0.34294,-2.42 -1.49641,-2.66013 -1.21426,-0.25278 -1.75,0.26081 -1.75,1.67763 0,1.40422 -0.46847,1.86217 -1.5,1.46634 -1.76408,-0.67695 -2.03029,-3.36163 -0.33333,-3.36163 0.64166,0 0.9052,-0.26146 0.58564,-0.58102 -0.31956,-0.31956 -1.59437,-0.0387 -2.83292,0.62416 -1.91947,1.02727 -3.0393,0.79324 -7.58565,-1.58532 C 354.11523,621.63613 352,619.86377 352,618.85082 c 0,-2.50725 -3.00432,-4.72925 -7.5,-5.54702 -2.2,-0.40019 -5.07386,-1.78826 -6.38636,-3.08462 -1.3125,-1.29635 -2.8875,-2.35888 -3.5,-2.36119 -1.17196,-0.004 -6.96327,-2.90085 -14.77816,-7.39112 -2.56549,-1.47407 -8.86549,-4.47855 -14,-6.67661 -11.60278,-4.96711 -15.64624,-6.80235 -18.83548,-8.54902 -8.57628,-4.69702 -27.07405,-13.37906 -28.50516,-13.37906 -0.93837,0 -3.0716,-1.14897 -4.7405,-2.55326 -1.66891,-1.40429 -3.60409,-2.33464 -4.3004,-2.06744 -0.69632,0.2672 -1.99223,-0.31662 -2.87981,-1.29739 -0.88758,-0.98076 -5.42491,-3.48138 -10.08296,-5.55693 l -8.46917,-3.77372 -1.87066,2.31017 -1.87066,2.31016 -2.55553,-2.55553 c -1.40555,-1.40555 -4.6187,-3.5543 -7.14035,-4.77501 -2.52164,-1.2207 -4.5848,-2.57181 -4.5848,-3.00245 0,-0.43064 -1.6875,-1.0691 -3.75,-1.41879 -6.16212,-1.04477 -13.50164,-5.66519 -14.4868,-9.11981 -0.86073,-3.01828 -1.41037,-16.55591 -2.3958,-59.00919 -0.51354,-22.12413 -0.45506,-23.10965 1.52039,-25.62103 1.12997,-1.43652 3.75497,-3.07002 5.83335,-3.63 10.07491,-2.71449 48.3977,-14.97569 68.86145,-22.0319 43.96295,-15.15907 46.27095,-15.65498 55.67918,-11.96338 3.43103,1.34626 8.48823,3.03542 11.23823,3.75368 2.75,0.71826 5.71043,1.91251 6.57874,2.65388 0.86831,0.74137 2.5185,1.34794 3.6671,1.34794 1.14859,0 4.2569,0.92955 6.90736,2.06567 7.91725,3.39373 50.4688,19.03958 55.6532,20.46322 2.64353,0.72591 5.34353,1.74734 6,2.26984 0.65648,0.5225 2.5436,1.18581 4.1936,1.47403 1.65,0.28821 6.375,1.88718 10.5,3.55327 4.125,1.66608 10.2,3.79117 13.5,4.72241 3.3,0.93125 10.05,3.3752 15,5.431 4.95,2.0558 11.475,4.30208 14.5,4.99174 3.025,0.68965 6.40617,1.81897 7.5137,2.50959 1.10754,0.69062 5.15754,2.40713 9,3.81447 3.84247,1.40733 8.89422,3.37913 11.22613,4.38178 l 4.23983,1.82298 0.0102,43.61514 c 0.01,42.61795 -0.0372,43.67538 -2.06241,46.25 -1.13992,1.44917 -2.76855,2.63486 -3.61919,2.63486 -0.85063,0 -4.08047,1.5387 -7.17742,3.41933 -4.82091,2.92751 -20.3848,10.58067 -21.51744,10.58067 -0.208,0 -8.71074,4.05 -18.89498,9 -10.18425,4.95 -18.97991,9 -19.54593,9 -0.56601,0 -3.64887,1.47758 -6.85079,3.28351 -3.20192,1.80593 -7.17167,4.02129 -8.82167,4.92303 -3.77197,2.06141 -35.49417,17.80521 -35.78504,17.76019 -0.11823,-0.0183 -1.22908,-0.87924 -2.46855,-1.9132 z M 426,590.86218 c 0,-0.55 -0.45,-1 -1,-1 -0.55,0 -1,0.45 -1,1 0,0.55 0.45,1 1,1 0.55,0 1,-0.45 1,-1 z M 320,562.30316 c 0,-0.24254 -0.45,-0.44098 -1,-0.44098 -0.55,0 -1,0.47656 -1,1.05902 0,0.58246 0.45,0.7809 1,0.44098 0.55,-0.33992 1,-0.81648 1,-1.05902 z m -19.23711,-5.51828 c 0.23251,-3.02725 -0.14299,-3.62245 -3.25,-5.15154 L 294,549.9045 l 0,2.39705 c 0,1.31838 -0.26049,3.07589 -0.57887,3.90558 -0.37575,0.97918 0.41377,2.04569 2.25,3.03937 3.80455,2.05884 4.78081,1.58687 5.09176,-2.46162 z M 219.5746,552.98289 C 218.86616,551.83661 215,550.82772 215,551.78913 c 0,1.26641 1.25514,2.07305 3.22568,2.07305 1.0408,0 1.64781,-0.39568 1.34892,-0.87929 z m 246.02957,-2.84988 c -0.33229,-0.33229 -0.56864,0.25834 -0.52522,1.3125 0.048,1.16495 0.28494,1.4019 0.60416,0.60417 0.28887,-0.72188 0.25335,-1.58437 -0.0789,-1.91667 z M 259,540.9212 c 0,-0.51754 -0.45,-1.2191 -1,-1.55902 -0.55,-0.33992 -1,0.0835 -1,0.94098 0,0.85746 0.45,1.55902 1,1.55902 0.55,0 1,-0.42344 1,-0.94098 z m 143.5907,-13.80166 c -0.6935,-0.69349 -2.5907,0.71555 -2.5907,1.9241 0,0.6631 0.57378,0.58723 1.52417,-0.20152 0.83829,-0.69572 1.31823,-1.47088 1.06653,-1.72258 z M 223.5,523.86218 c -1.64185,-3.17498 -2.91976,-3.74786 -4.10009,-1.83805 -0.40686,0.65831 0.26576,1.95866 1.55176,3 3.32842,2.69519 4.3112,2.24707 2.54833,-1.16195 z m 108.5,87 c -1.21296,-0.78387 -1.06944,-0.9723 0.75,-0.98469 1.2375,-0.008 2.25,0.43469 2.25,0.98469 0,1.25292 -1.06124,1.25292 -3,0 z"
         id="path2730"
         inkscape:connector-curvature="0" />
      <path
         style="fill:#b55646"
         d="m 376.21609,629.8432 c 0.2437,-1.66044 -0.0427,-3.41663 -0.6365,-3.90265 -1.29545,-1.06036 -53.32464,-26.17237 -69.57959,-33.58276 -11.212,-5.11138 -32.05443,-15.14089 -62.56433,-30.10637 -8.28539,-4.06408 -15.59789,-7.38924 -16.25,-7.38924 -0.65212,0 -1.18567,0.87344 -1.18567,1.94098 0,1.06754 -0.46971,2.23128 -1.0438,2.58609 -1.70104,1.0513 -4.15427,-1.71059 -3.68764,-4.15161 0.23616,-1.23539 0.15984,-2.65351 -0.16959,-3.15138 -0.62776,-0.94873 -20.43064,-10.22408 -21.82842,-10.22408 -0.44345,0 -2.48574,-1.14122 -4.53842,-2.53605 -3.10314,-2.10864 -3.73213,-3.11984 -3.73213,-6 0,-2.02752 0.49762,-3.46395 1.2,-3.46395 0.93333,0 0.93333,-0.26667 0,-1.2 -0.66,-0.66 -1.2,-2.04032 -1.2,-3.06739 0,-1.47592 0.47167,-1.72161 2.25,-1.172 2.00828,0.62068 1.9344,0.3995 -0.68768,-2.05879 -2.64166,-2.47666 -2.77195,-2.87537 -1.29305,-3.95677 1.52496,-1.11507 1.52355,-1.32366 -0.0195,-2.86667 -1.185,-1.18499 -1.35514,-1.97305 -0.59097,-2.73722 0.76417,-0.76417 5.93411,1.36731 17.95714,7.40342 17.1944,8.63237 29.8688,14.65542 30.83965,14.65542 0.29647,0 3.35273,1.31721 6.7917,2.92714 13.18963,6.17461 44.71159,20.4392 54.75267,24.77715 5.775,2.49492 13.2,5.77672 16.5,7.29291 16.2539,7.46784 33.89984,15.2354 42,18.48797 4.95,1.98763 9.99667,4.2666 11.21482,5.06436 4.01097,2.62676 5.45702,1.92419 4.73294,-2.29953 -0.35357,-2.0625 -1.43967,-4.44912 -2.41355,-5.3036 -1.69224,-1.48477 -1.68792,-1.65583 0.0976,-3.86079 1.02753,-1.26895 1.86824,-2.8782 1.86824,-3.57612 0,-0.69792 -5.2875,-3.63463 -11.75,-6.52602 -11.20312,-5.0124 -24.46797,-11.01255 -39.75,-17.9803 -3.85,-1.75538 -14.875,-6.53739 -24.5,-10.62668 -9.625,-4.08929 -19.90701,-8.58255 -22.84892,-9.98504 -2.94191,-1.40248 -6.99191,-3.13917 -9,-3.8593 -2.0081,-0.72014 -7.25109,-2.98088 -11.65109,-5.02387 -19.52043,-9.06366 -32.68068,-14.92743 -41.5,-18.49103 -15.37883,-6.21406 -23.00736,-9.864 -23.47903,-11.23374 -0.24309,-0.70593 -0.61942,-6.81514 -0.83629,-13.57603 -0.35051,-10.9272 -0.19996,-12.39653 1.3555,-13.22898 1.25975,-0.6742 2.1293,-0.47697 3.10481,0.70421 0.74526,0.90237 3.83001,2.72384 6.85501,4.04772 3.025,1.32387 8.2,3.68301 11.5,5.24253 3.3,1.55951 7.125,3.16337 8.5,3.56411 1.375,0.40074 6.63675,2.69384 11.69277,5.09578 5.05602,2.40193 9.59571,4.36715 10.0882,4.36715 0.82083,0 25.25715,10.52555 41.48731,17.86999 3.72256,1.68452 8.67256,3.55261 11,4.15131 2.32745,0.59869 6.70672,2.37856 9.73172,3.95525 3.025,1.57669 14.275,6.2891 25,10.47201 10.725,4.18292 22.2,8.78066 25.5,10.21722 3.3,1.43655 8.025,3.38073 10.5,4.32039 2.475,0.93966 5.30691,2.05777 6.29313,2.48469 2.42057,1.04783 3.20752,0.0505 1.2782,-1.61998 -4.67612,-4.04865 -8.65092,-8.13108 -9.54711,-9.80562 -0.95247,-1.77972 -1.20948,-1.79955 -4.17156,-0.32187 -2.45925,1.22684 -3.50956,1.31642 -4.7546,0.40555 -0.87893,-0.64303 -2.94806,-1.79422 -4.59806,-2.5582 -1.65,-0.76398 -4.25073,-2.37301 -5.7794,-3.57561 -1.52867,-1.2026 -3.4706,-1.92131 -4.31539,-1.59713 -1.17786,0.45199 -1.3849,0.11337 -0.88798,-1.45228 0.82787,-2.6084 -1.10062,-4.94572 -4.08066,-4.94572 -1.27519,0 -2.59665,-0.45 -2.93657,-1 -0.33992,-0.55 -1.71648,-1 -3.05902,-1 -1.34254,0 -2.44098,-0.41383 -2.44098,-0.91963 0,-1.15896 -9.32071,-4.30707 -11.71509,-3.95682 -0.9817,0.1436 -3.35991,-0.72377 -5.28491,-1.92749 -1.925,-1.20372 -4.0074,-2.19027 -4.62756,-2.19232 -0.62015,-0.002 -1.68775,-0.67874 -2.37244,-1.50374 -0.68469,-0.825 -2.28823,-1.5 -3.56343,-1.5 -1.27519,0 -2.57904,-0.4215 -2.89743,-0.93668 -0.84955,-1.37459 -6.56256,-4.06332 -8.63376,-4.06332 -0.98304,0 -2.06546,-0.45 -2.40538,-1 -0.33992,-0.55 -1.37898,-1.00277 -2.30902,-1.00616 -0.93004,-0.003 -3.02958,-0.70416 -4.66566,-1.55726 -1.63607,-0.85311 -4.34255,-1.43325 -6.0144,-1.28921 -1.67184,0.14403 -3.60672,-0.0885 -4.29972,-0.51684 -0.693,-0.4283 -2.59902,-0.48462 -4.2356,-0.12517 -2.00075,0.43944 -2.9756,0.26344 -2.9756,-0.5372 0,-0.81925 -1.09194,-0.98589 -3.5,-0.53414 -3.09576,0.58077 -3.5,0.41448 -3.5,-1.43973 0,-1.44265 -1.07007,-2.54345 -3.43162,-3.53016 -1.88739,-0.78861 -3.68242,-1.83963 -3.98895,-2.33562 -0.30654,-0.49598 -2.07553,-1.1866 -3.9311,-1.5347 -3.8794,-0.72779 -7.45866,-3.97497 -5.62834,-5.10616 1.70666,-1.05478 -10.76315,-8.10005 -15.65507,-8.84491 -3.62024,-0.55123 -4.20257,-0.37158 -4.67707,1.44293 -0.38379,1.46762 -1.19713,1.97649 -2.78659,1.74344 -3.06508,-0.44941 -3.43927,-2.28342 -0.71398,-3.49947 l 2.24368,-1.00116 -2.6161,-1.71413 c -1.43886,-0.94278 -4.79832,-2.53705 -7.46548,-3.54283 -2.66716,-1.00578 -5.57774,-2.13378 -6.46796,-2.50667 -1.12531,-0.47135 -1.78247,-0.0512 -2.15638,1.37859 -0.67434,2.57867 -3.72504,2.72736 -3.72504,0.18156 0,-1.03125 -0.26736,-3.21179 -0.59413,-4.84565 -0.56493,-2.82464 -0.33145,-3.07413 4.75,-5.0759 9.92714,-3.91065 31.3891,-10.20345 34.79949,-10.20345 1.86294,0 4.09759,-0.63563 4.9659,-1.41251 0.86831,-0.77688 7.65374,-3.47167 15.07874,-5.98843 7.425,-2.51675 15.975,-5.49898 19,-6.62717 6.49312,-2.42164 14.7343,-5.14824 21,-6.94786 2.475,-0.71087 7.75174,-2.39679 11.72608,-3.74651 l 7.22609,-2.45403 13.27391,4.23905 c 7.30066,2.33147 13.98435,4.84619 14.85266,5.58825 0.86831,0.74207 2.59288,1.34921 3.83239,1.34921 1.2395,0 5.25407,1.31042 8.92126,2.91205 3.66718,1.60162 11.16761,4.4865 16.66761,6.41083 5.5,1.92433 12.475,4.56851 15.5,5.87595 3.025,1.30744 9.55,3.65974 14.5,5.22734 4.95,1.5676 10.47777,3.463 12.28393,4.21201 1.80616,0.749 3.99489,1.36182 4.86384,1.36182 0.86896,0 3.21619,0.85349 5.21608,1.89665 4.44592,2.31904 10.55039,4.43264 19.13615,6.62568 3.575,0.91315 8.075,2.45519 10,3.42675 1.925,0.97156 7.325,3.00907 12,4.52781 4.675,1.51873 10.75,3.65208 13.5,4.74076 2.75,1.08869 8.52241,3.25896 12.82757,4.82282 11.10301,4.03321 11.68057,4.70109 6.65629,7.6972 -3.15118,1.87914 -3.83621,2.73531 -2.9973,3.74613 0.61631,0.74261 2.53867,1.1754 4.43711,0.99896 l 3.34968,-0.31132 0.39178,13.40691 c 0.21548,7.3738 0.15398,15.76657 -0.13668,18.65059 -0.5123,5.08347 -0.63539,5.26136 -4.02845,5.82222 -4.90877,0.8114 -7.94074,2.66276 -9.02312,5.50964 -0.64506,1.69665 -1.69598,2.4392 -3.45213,2.4392 -1.57756,0 -2.52475,0.56275 -2.52475,1.5 0,1.88797 0.98786,1.89723 3.64771,0.0342 3.15754,-2.21163 13.75047,-4.59383 14.8423,-3.33783 0.14517,0.16699 0.49499,7.05363 0.77736,15.30363 0.37554,10.97175 0.16878,15.80565 -0.76991,18 -0.70584,1.65 -1.55344,3.81631 -1.88358,4.81401 -0.33013,0.99771 -1.39081,1.72677 -2.35706,1.62013 -3.6434,-0.4021 -8.52616,1.37981 -9.02679,3.29424 -0.27688,1.05878 -1.45441,2.33946 -2.61672,2.84595 -1.16232,0.50649 -2.78831,1.33616 -3.61331,1.84371 -0.825,0.50755 -3.48888,1.89121 -5.91972,3.0748 -3.93407,1.91552 -4.51642,1.97921 -5.29969,0.57957 C 467.71114,584.52359 464,584.3362 464,586.1932 c 0,1.31226 -0.73862,1.76 -8.35212,5.06289 -2.11867,0.91912 -4.08366,2.5565 -4.36664,3.63861 -0.35247,1.34788 -1.37048,1.96748 -3.23257,1.96748 -1.72875,0 -3.64399,1.03919 -5.26195,2.85506 -1.94007,2.17741 -3.79713,3.02131 -7.82407,3.55551 -8.15155,1.08134 -8.27781,0.79575 -8.52751,-19.2873 -0.11592,-9.32317 -0.51281,-17.43992 -0.88197,-18.03724 -0.36916,-0.59732 -1.26857,-1.08603 -1.99869,-1.08603 -1.63849,0 -2.58181,5.57267 -1.18051,6.97397 0.62713,0.62713 0.95581,7.48059 0.85239,17.77337 -0.16201,16.12451 -0.25378,16.8225 -2.44734,18.61539 -1.25346,1.0245 -2.27902,2.2395 -2.27902,2.7 0,0.4605 -0.54343,1.3807 -1.20762,2.04489 -0.92663,0.92663 -1.537,0.93425 -2.62325,0.0328 -2.02822,-1.68328 -4.36785,-0.44337 -5.54723,2.9398 -1.08801,3.12107 -3.1219,3.97637 -3.1219,1.31284 0,-1.05452 -0.5438,-1.39831 -1.58179,-1 -0.86998,0.33385 -1.76998,0.60699 -2,0.60699 -0.23001,0 -0.41821,0.81 -0.41821,1.8 0,1.89247 -1.79514,4.2 -3.26739,4.2 -0.47706,0 -0.57139,-0.93259 -0.20963,-2.07241 0.63417,-1.99809 0.55128,-2.01735 -2.31143,-0.53699 -1.63305,0.84449 -3.2346,2.22707 -3.55898,3.07241 -0.32439,0.84535 -1.45144,1.53699 -2.50455,1.53699 -1.07375,0 -2.14448,0.87845 -2.43777,2 -0.28766,1.1 -1.06328,2 -1.72362,2 -0.66033,0 -0.96376,-0.61721 -0.67428,-1.37158 0.2994,-0.78023 -0.77661,-2.33488 -2.49572,-3.60587 l -3.02205,-2.2343 0.64717,2.94654 c 0.45187,2.05735 0.18109,3.33333 -0.89729,4.22831 -0.84945,0.70499 -1.54446,1.90169 -1.54446,2.65934 0,0.75766 -0.50107,1.37756 -1.1135,1.37756 -0.66996,0 -0.937,-1.20256 -0.67041,-3.01898 z m 7.2147,-21.20946 c -0.30489,-6.17564 -0.79027,-11.46314 -1.07864,-11.75 -0.28837,-0.28686 -1.37015,0.52174 -2.40395,1.79689 -1.51366,1.86703 -1.65378,2.68012 -0.71965,4.17591 0.85547,1.36982 0.87099,2.49176 0.0591,4.27363 -0.66305,1.45525 -0.7494,2.97612 -0.2171,3.8241 0.48608,0.77435 0.6285,2.22766 0.31648,3.22957 -0.55072,1.76842 2.03864,5.67834 3.76051,5.67834 0.46066,0 0.58812,-5.0528 0.28324,-11.22844 z m -9.86993,5.32691 C 372.97509,613.01286 367,610.66468 367,611.38226 c 0,0.53155 5.2368,3.38682 6.30902,3.43988 0.44496,0.022 0.55828,-0.36565 0.25184,-0.86149 z m -9.64419,-4.46879 C 363.06635,608.73611 354,604.99011 354,605.39452 c 0,0.70336 7.40372,4.37626 8.91667,4.42346 0.77916,0.0243 1.22916,-0.12245 1,-0.32612 z M 342.55021,599.28543 C 335.42136,595.74224 316.56423,586.8923 305,581.66255 c -3.575,-1.61674 -7.85,-3.5515 -9.5,-4.29948 -4.75142,-2.1539 -20.1478,-9.49257 -44.93888,-21.42008 -20.58084,-9.90188 -25.91367,-12.01736 -22.99445,-9.12167 0.51333,0.5092 5.88333,3.15154 11.93333,5.87188 6.05,2.72034 17.525,8.06875 25.5,11.88537 7.975,3.81661 16.075,7.65448 18,8.52859 1.925,0.87411 8.45,3.92369 14.5,6.77685 6.05,2.85316 17.75,8.30022 26,12.10459 8.25,3.80437 16.8,7.77934 19,8.83327 2.2,1.05393 4.675,1.91658 5.5,1.917 0.825,4.1e-4 -1.6274,-1.55363 -5.44979,-3.45344 z m 16.00866,1.04495 c -1.06762,-0.80751 -2.41762,-1.45389 -3,-1.4364 -0.58238,0.0175 -0.18536,0.6925 0.88226,1.5 1.06762,0.80751 2.41762,1.45389 3,1.4364 0.58238,-0.0175 0.18536,-0.6925 -0.88226,-1.5 z M 352,597.36218 c -0.68469,-0.825 -1.614,-1.5 -2.06513,-1.5 -0.45113,0 -9.50853,-4.11455 -20.12755,-9.14344 -19.65022,-9.30583 -31.71089,-14.6089 -35.30732,-15.52461 -4.02136,-1.02391 20.33654,10.69462 41,19.72499 5.5,2.40362 11.575,5.15618 13.5,6.11679 4.33884,2.16518 4.54474,2.18757 3,0.32627 z m 30.42583,-7.25 c 0.30833,-0.9625 2.81366,-3.28293 5.56739,-5.15651 2.8659,-1.9499 5.00678,-4.16954 5.00678,-5.19098 0,-2.49281 -1.73681,-3.30712 -2.42551,-1.13721 -0.31323,0.98689 -1.94606,2.31394 -3.62853,2.94899 -3.58919,1.35477 -4.59835,0.0625 -3.488,-4.46653 0.60348,-2.46154 0.51364,-2.59088 -0.8625,-1.2417 -1.87546,1.83872 -3.47423,15.99394 -1.80645,15.99394 0.59192,0 1.32849,-0.7875 1.63682,-1.75 z M 341.5,585.81242 c -18.06372,-8.72002 -25.6962,-12.08737 -26.21696,-11.56661 -0.51044,0.51044 3.21688,2.38131 16.71696,8.39085 1.925,0.85691 5.75,2.58228 8.5,3.83416 7.25497,3.30268 8.08009,2.75942 1,-0.6584 z M 466,579.24415 c 0,-1.41203 -0.43519,-2.23104 -1,-1.88197 -0.55,0.33992 -1,1.74303 -1,3.11803 0,1.41203 0.43519,2.23104 1,1.88197 0.55,-0.33992 1,-1.74303 1,-3.11803 z m -63,-2.84206 2.5,-1.38922 -2.97166,-1.13487 c -3.26409,-1.24655 -8.16034,0.15257 -7.01563,2.00475 0.34402,0.55663 1.0133,0.77237 1.48729,0.47943 0.47399,-0.29294 1.14446,-0.0753 1.48992,0.48369 0.80983,1.31033 1.47039,1.24534 4.51008,-0.44378 z m -90.55,-3.46911 c -1.19836,-1.17212 -34.08103,-16.60357 -37.45,-17.57484 -6.8993,-1.98907 4.72211,3.90533 27,13.69444 3.025,1.32921 6.625,2.92469 8,3.5455 3.16562,1.42927 3.63438,1.49334 2.45,0.3349 z m 100.9021,-0.44204 c 4.32474,-1.50568 5.61025,-3.00625 5.63259,-6.57493 0.0152,-2.42731 -0.0109,-2.42081 -3.37768,0.84246 -2.81924,2.7325 -3.72706,3.10983 -5.36852,2.23135 -2.47922,-1.32684 -3.07948,-0.74666 -2.47875,2.39586 0.54884,2.87108 0.53071,2.8675 5.59236,1.10526 z m -29.36741,-3.87876 c 0.008,-0.4125 -0.43469,-0.75 -0.98469,-0.75 -0.55,0 -0.99311,1.0125 -0.98469,2.25 0.0124,1.81944 0.20082,1.96296 0.98469,0.75 0.53316,-0.825 0.97627,-1.8375 0.98469,-2.25 z m -94.48469,0.25 c -0.33992,-0.55 -1.15398,-0.99311 -1.80902,-0.98469 -0.71561,0.009 -0.59227,0.40223 0.30902,0.98469 1.92112,1.24153 2.2673,1.24153 1.5,0 z m -3.85818,-1.75 c -0.26192,-0.4125 -1.97598,-1.46468 -3.80902,-2.33818 -1.83304,-0.8735 -9.14949,-4.4089 -16.25877,-7.85644 C 253.41524,551.02132 245,547.49972 245,548.30776 c 0,0.69631 6.61039,4.12342 14.5,7.51743 4.4,1.89282 11.78019,5.37547 16.40041,7.73924 8.13719,4.16308 10.7322,5.10817 9.74141,3.54775 z m 180.69331,-4.42354 c 0.6183,-2.36436 0.0856,-3.82646 -1.39415,-3.82646 -0.51754,0 -0.94098,1.35 -0.94098,3 0,3.47782 1.50271,4.00966 2.33513,0.82646 z m -24.95357,-7.3784 c 0.34149,-0.88992 0.17385,-1.29132 -0.39301,-0.94098 -0.5437,0.33602 -0.98855,1.0344 -0.98855,1.55194 0,1.43843 0.71677,1.12146 1.38156,-0.61096 z m 26.06353,-4.57 c 2.22485,-6.80208 1.60551,-8.47271 -2.37746,-6.41303 -1.63257,0.84423 -3.60325,1.53497 -4.3793,1.53497 -0.96583,0 -1.26021,0.78874 -0.93308,2.5 0.26285,1.375 0.88509,2.5 1.38277,2.5 0.49767,0 1.41744,1.125 2.04393,2.5 0.6265,1.375 1.46505,2.5 1.86346,2.5 0.39841,0 1.47827,-2.30487 2.39968,-5.12194 z m -42.84092,0.39277 c -0.3323,-0.33229 -0.56864,0.25834 -0.52522,1.3125 0.048,1.16495 0.28494,1.4019 0.60416,0.60417 0.28887,-0.72188 0.25335,-1.58437 -0.0789,-1.91667 z M 383,551.44397 c 0,-0.78002 0.27169,-2.12623 0.60375,-2.99157 0.79255,-2.06534 -2.4863,-3.38593 -3.68936,-1.48594 -1.66612,2.63128 -1.06502,5.89572 1.08561,5.89572 1.1,0 2,-0.6382 2,-1.41821 z m 65,0.41821 c 0,-0.55 -0.45,-1 -1,-1 -0.55,0 -1,0.45 -1,1 0,0.55 0.45,1 1,1 0.55,0 1,-0.45 1,-1 z m -182,-0.47069 c 0,-0.56756 -9.49172,-4.95123 -13,-6.00394 -4.59069,-1.3775 -0.67001,1.42384 5.60113,4.00202 5.99419,2.46433 7.39887,2.84439 7.39887,2.00192 z m 190.04584,-1.61496 c 0.61391,-1.1471 0.86562,-2.33623 0.55935,-2.6425 C 455.77925,546.3081 453,548.89108 453,550.48462 c 0,2.07032 1.78039,1.65642 3.04584,-0.70809 z M 240,545.13087 c -4.78981,-2.88707 -31.09487,-14.50716 -31.62978,-13.97225 -0.40822,0.40823 26.01073,13.62931 30.62978,15.32835 5.53079,2.03442 5.8675,1.5778 1,-1.3561 z m 92,1.34998 c 0,-0.20973 -3.9375,-2.05833 -8.75,-4.10798 -4.8125,-2.04966 -11.5939,-5.02806 -15.06977,-6.61867 -6.35293,-2.90719 -9.44675,-3.71429 -7.63023,-1.99053 0.5225,0.49582 5,2.59106 9.95,4.65609 4.95,2.06503 11.475,4.79868 14.5,6.07478 5.42275,2.28758 7,2.73514 7,1.98631 z m 92.66228,-4.86867 c -0.27741,-0.6875 -0.50439,-0.125 -0.50439,1.25 0,1.375 0.22698,1.9375 0.50439,1.25 0.27741,-0.6875 0.27741,-1.8125 0,-2.5 z M 222.45,543.00646 c -0.5225,-0.47065 -5.64055,-2.9337 -11.37344,-5.47344 -12.32145,-5.45856 -12.14101,-4.7363 0.42344,1.69485 8.18798,4.19105 13.40746,5.99217 10.95,3.77859 z m 25.55,0.38803 c 0,-0.97199 -45.02285,-21.8428 -45.68698,-21.17866 -0.42881,0.4288 11.43845,6.33409 30.68698,15.2702 13.27076,6.16094 15,6.84208 15,5.90846 z m 133.42997,-2.64562 C 380.42114,539.11655 379,539.83926 379,541.98462 c 0,1.76626 0.24988,1.91507 1.48899,0.8867 0.81894,-0.67967 1.24239,-1.63477 0.94098,-2.12245 z m 94.66575,0.49797 c 1.15986,-1.39754 1.08641,-1.56608 -0.54469,-1.25 -1.03691,0.20094 -2.07259,0.92784 -2.3015,1.61534 -0.59396,1.78389 1.25999,1.54592 2.84619,-0.36534 z m -146.44008,-2.50116 c -2.11441,-1.11546 -4.07925,-1.79322 -4.36634,-1.50614 -0.28708,0.28708 0.99289,1.18291 2.84437,1.99073 4.96831,2.16772 5.95439,1.85375 1.52197,-0.48459 z M 387.25,537.47013 c 2.18913,-1.66178 2.16931,-2.50479 -0.12915,-5.49398 -1.21424,-1.57915 -2.0721,-2.00186 -2.53678,-1.25 -0.38616,0.62482 -1.55971,1.13603 -2.6079,1.13603 -2.24821,0 -4.22502,3.18793 -3.3656,5.42756 0.74507,1.9416 6.17011,2.05487 8.63943,0.18039 z m 78.73469,-4.79893 c 0.0135,-3.25112 -1.36542,-5.76162 -2.52674,-4.6003 -0.22495,0.22495 -0.12859,2.77659 0.21413,5.67033 0.69384,5.85836 2.28692,5.12125 2.31261,-1.07003 z m -41.32712,1.52928 c 0.27547,-1.56106 0.5777,-5.01546 0.67164,-7.67643 0.12994,-3.68096 0.70894,-5.27395 2.42079,-6.66029 1.41842,-1.14871 2.25,-2.91883 2.25,-4.78943 0,-3.39958 -2.41013,-6.1917 -3.31321,-3.83833 -0.30072,0.78367 -2.26577,1.97559 -4.36678,2.64869 -2.10101,0.67311 -4.72001,2.01281 -5.82001,2.97711 -1.1,0.96431 -3.8,2.0652 -6,2.44643 -4.6899,0.81269 -11.17672,4.96002 -12.04707,7.70226 -0.33505,1.05564 -1.54513,2.79132 -2.68906,3.85705 -2.05939,1.91861 -2.03151,1.9196 2.82812,0.0999 2.69941,-1.01078 8.28301,-3.1842 12.40801,-4.82982 9.96689,-3.97618 13,-4.67485 13,-2.99452 0,0.72548 -0.39847,1.74655 -0.88548,2.26905 -0.87305,0.93665 -0.28505,12.95387 0.59095,12.07786 0.24819,-0.24819 0.67664,-1.72849 0.9521,-3.28956 z M 323,535.95273 c -0.825,-0.46674 -2.625,-1.14683 -4,-1.5113 l -2.5,-0.66268 2.5,1.50628 c 1.375,0.82845 3.175,1.50854 4,1.51131 1.33333,0.004 1.33333,-0.0893 0,-0.84361 z m 0,-6.59055 c -3.27204,-1.87047 -5.04477,-1.84843 -2.55887,0.0318 1.06762,0.80751 2.64262,1.45225 3.5,1.43276 0.99919,-0.0227 0.6613,-0.54853 -0.94113,-1.46456 z m 69.60417,-1.22917 c -1.01652,-1.01651 -1.85525,0.51389 -1.02122,1.86338 0.63003,1.01942 0.86558,1.02021 1.2043,0.004 0.2316,-0.69479 0.14921,-1.53512 -0.18308,-1.86742 z M 300,526.36218 c -1.375,-0.78602 -2.95,-1.42913 -3.5,-1.42913 -0.55,0 0.125,0.64311 1.5,1.42913 1.375,0.78602 2.95,1.42913 3.5,1.42913 0.55,0 -0.125,-0.64311 -1.5,-1.42913 z m -15,0.11013 c 0,-0.56396 -8.05818,-4.23277 -11,-5.00819 -1.375,-0.36243 -0.025,0.68264 3,2.32237 4.99518,2.70769 8,3.71649 8,2.68582 z m 180.35661,-2.09705 c 0.31382,-0.81781 0.30508,-4.33015 -0.0194,-7.8052 -0.70562,-7.55638 1.01586,-11.78305 5.56691,-13.66815 1.64913,-0.68309 3.70572,-2.32148 4.57021,-3.64086 1.14366,-1.74544 2.48872,-2.39887 4.93797,-2.39887 1.85139,0 4.36222,-0.80656 5.57962,-1.79235 2.00418,-1.62289 2.06193,-1.9181 0.61078,-3.12244 -1.27658,-1.05947 -1.90528,-1.07895 -3.08994,-0.0958 -0.81799,0.67888 -2.20859,0.95752 -3.09022,0.61921 -0.88163,-0.33831 -3.02486,0.12527 -4.76274,1.03018 -1.73787,0.90492 -3.83477,1.967 -4.65977,2.36018 -0.825,0.39319 -1.725,1.97963 -2,3.52544 -0.66458,3.73567 -2.68977,4.25055 -4.14616,1.05411 C 463.68705,497.87992 462,496.94675 462,498.86218 c 0,0.55 -0.83285,1 -1.85078,1 -3.5402,0 -7.95208,2.13814 -8.46586,4.10283 -0.40885,1.56343 -1.05741,1.84139 -3.10018,1.32869 C 446.45322,504.75911 446,504.99482 446,506.63714 c 0,1.15077 -0.84448,2.21261 -2,2.51479 -1.94818,0.50946 -2.86599,2.71025 -1.13027,2.71025 0.47835,0 3.68697,-0.9 7.13027,-2 3.4433,-1.1 7.33806,-2 8.65502,-2 3.21335,0 4.68957,3.79756 4.56756,11.75 -0.0906,5.90708 0.87122,8.05391 2.13403,4.76308 z M 289,521.44423 c -5.68093,-2.93493 -9.95258,-4.28548 -8.41659,-2.66104 1.13287,1.19812 10.18487,4.98529 11.91659,4.98565 0.55,1.2e-4 -1.025,-1.04596 -3.5,-2.32461 z m 17.5746,1.53866 c -0.57644,-0.9327 -4.5746,-2.2392 -4.5746,-1.49487 0,0.24124 1.0125,0.84558 2.25,1.343 2.93365,1.17918 2.9606,1.18094 2.3246,0.15187 z M 269,519.36218 c -1.375,-0.78602 -2.95,-1.42913 -3.5,-1.42913 -0.55,0 0.125,0.64311 1.5,1.42913 1.375,0.78602 2.95,1.42913 3.5,1.42913 0.55,0 -0.125,-0.64311 -1.5,-1.42913 z m 168.72524,-5.30903 c 2.01255,-1.27858 2.03028,-5.5558 0.0248,-5.97331 -1.27743,-0.26593 -1.75,0.27659 -1.75,2.00902 0,1.30532 -0.54,2.91332 -1.2,3.57332 -0.93333,0.93333 -0.87778,1.1966 0.25,1.18469 0.7975,-0.008 2.00136,-0.3656 2.67524,-0.79372 z M 243.5,445.86218 c -0.33992,-0.55 -0.81648,-1 -1.05902,-1 -0.24254,0 -0.44098,0.45 -0.44098,1 0,0.55 0.47656,1 1.05902,1 0.58246,0 0.7809,-0.45 0.44098,-1 z"
         id="path2728"
         inkscape:connector-curvature="0" />
      <path
         style="fill:#b24838"
         d="m 368.5,621.45971 c -4.4,-2.2552 -15.32428,-7.65044 -24.27618,-11.98943 -8.9519,-4.33899 -16.06237,-8.10289 -15.80104,-8.36421 0.26132,-0.26132 1.8481,0.003 3.52617,0.58847 7.18976,2.50636 0.20073,-1.83177 -10.94895,-6.79609 -13.5064,-6.01362 -22.45634,-10.14988 -25,-11.55388 -2.93026,-1.61737 -10.24749,-5.15542 -29.5,-14.26391 -7.7,-3.64292 -14.71043,-7.20736 -15.57874,-7.92098 -0.86831,-0.71363 -1.91403,-1.2975 -2.32382,-1.2975 -0.4098,0 -5.22205,-2.25 -10.69388,-5 -11.00428,-5.53046 -12.31931,-5.88528 -11.43027,-3.08416 0.33444,1.05372 0.13976,2.20527 -0.43261,2.55902 -0.57237,0.35375 -1.04068,1.55412 -1.04068,2.66749 0,4.20313 -2.52384,1.0006 -3.26387,-4.14156 -0.88311,-6.13641 -1.792,-7.54701 -5.45516,-8.46641 -2.34194,-0.58779 -12.53176,-5.06461 -17.6826,-7.76872 -1.55445,-0.81606 -1.78839,-0.70324 -1.28138,0.61801 0.69558,1.81266 -0.0985,2.04011 -2.28803,0.65539 -0.80907,-0.51167 -1.14559,-1.25576 -0.74782,-1.65354 0.39777,-0.39777 -0.0225,-1.54724 -0.93395,-2.55437 -2.94267,-3.25161 0.42274,-2.11314 13.80144,4.66885 7.05234,3.575 13.71141,6.5 14.79795,6.5 1.08653,0 2.78054,0.85677 3.76447,1.90393 0.98392,1.04716 8.76395,5.05213 17.28895,8.89993 8.525,3.84779 20.675,9.45133 27,12.45231 28.6117,13.57516 103.40191,47.81926 107.11364,49.04397 1.89193,0.62426 2.37025,8.80249 0.5,8.5488 -0.6125,-0.0831 -4.71364,-1.99622 -9.11364,-4.25141 z m 2.5,-2.4809 c 0,-0.48585 -0.7875,-1.1098 -1.75,-1.38655 -0.9625,-0.27674 -2.65,-0.80684 -3.75,-1.17798 -1.1,-0.37115 -0.425,0.23394 1.5,1.34463 4.12999,2.38293 4,2.34329 4,1.2199 z m -27.83971,-13.27785 c -2.38684,-1.09598 -4.57669,-1.75572 -4.86633,-1.46607 -0.64602,0.64602 5.6301,3.46517 7.70604,3.46146 0.825,-0.001 -0.45287,-0.89941 -2.83971,-1.99539 z m 41.75635,17.91122 c -0.0458,-0.1375 -0.31448,-6.325 -0.59695,-13.75 -0.28248,-7.425 -0.90629,-13.74311 -1.38626,-14.04024 -0.47996,-0.29713 -0.51748,-1.8683 -0.0834,-3.4915 0.90396,-3.38003 13.22899,-13.46826 16.45451,-13.46826 1.07765,0 3.36248,-0.83458 5.0774,-1.85462 4.89373,-2.91081 15.61452,-5.54895 16.98381,-4.17932 1.22167,1.22198 1.50448,27.46993 0.34545,32.06238 -0.60364,2.39183 -6.81952,6.08127 -19.21123,11.40283 -7.21709,3.09934 -9.10551,4.11245 -10.78896,5.78808 -1.43821,1.43153 -6.4509,2.5608 -6.7944,1.53065 z M 369,610.93826 c -3.575,-1.52124 -11.9,-5.36881 -18.5,-8.55016 -24.29283,-11.70968 -36.5746,-17.52592 -37.00834,-17.52592 -0.52047,0 -11.73195,-5.30987 -45.49166,-21.5453 -13.475,-6.48028 -29.15661,-13.9895 -34.84802,-16.68716 -5.69141,-2.69765 -10.12073,-5.13212 -9.84293,-5.40992 0.2778,-0.2778 1.9333,0.23347 3.6789,1.13615 1.74559,0.90268 6.62491,3.1365 10.84293,4.96405 11.92129,5.16517 28.53444,12.7504 41.43315,18.91755 6.47022,3.09355 12.00953,5.62463 12.30959,5.62463 0.30006,0 4.23125,1.74831 8.73597,3.88513 20.36833,9.66174 44.77638,20.76533 60.74571,27.63413 11.18684,4.81174 17.9447,8.38847 17.9447,9.49759 0,1.59979 -3.08778,1.00052 -10,-1.94077 z m 6,-3.8065 c -0.825,-0.31006 -6.675,-3.01678 -13,-6.01492 -26.9193,-12.76015 -43.38537,-20.42885 -57,-26.54646 -7.975,-3.5835 -22.6,-10.42344 -32.5,-15.19988 -9.9,-4.77643 -20.47838,-9.72958 -23.50751,-11.00699 -3.02914,-1.27742 -8.87914,-4.13266 -13,-6.34499 -4.12087,-2.21233 -9.87226,-4.95279 -12.78086,-6.08991 C 213.22291,532.02351 191,521.00618 191,519.95923 c 0,-1.33878 1.89694,-0.5976 14.5,5.66553 10.69248,5.31365 26.45322,12.8161 33,15.70871 2.2,0.97204 7.375,3.35082 11.5,5.28619 4.125,1.93537 10.425,4.75366 14,6.26286 3.575,1.5092 15.05,6.66333 25.5,11.45363 44.31432,20.31373 51.35784,23.49922 56.05532,25.35147 2.71958,1.07235 10.15252,4.40654 16.51765,7.4093 6.36513,3.00277 12.80753,5.76944 14.31644,6.14815 1.80818,0.45382 2.6356,1.24474 2.42703,2.31997 -0.36058,1.85895 -1.64067,2.38445 -3.81644,1.56672 z m 53.4665,-5.32378 c -1.34347,-2.17378 -1.66893,-30.04289 -0.38699,-33.13776 0.63972,-1.54442 1.47679,-2.80804 1.86016,-2.80804 0.38336,0 2.46627,-1.57465 4.62868,-3.49922 2.16241,-1.92457 4.50076,-3.49957 5.19635,-3.5 0.69558,-4.3e-4 2.07903,-1.33984 3.07432,-2.97646 1.30455,-2.14516 2.11343,-2.67187 2.89817,-1.88713 1.29662,1.29662 3.26281,0.31005 3.26281,-1.63719 0,-3.30633 -4.34287,-2.39789 -10.59439,2.21614 -1.70192,1.25612 -3.43696,2.28386 -3.85564,2.28386 -0.41869,0 -2.07769,1.10771 -3.68667,2.46157 -3.07542,2.58779 -9.5354,4.85912 -11.08906,3.8989 -0.5024,-0.3105 -2.79463,0.34305 -5.09385,1.45233 -2.29921,1.10927 -5.46368,2.51641 -7.03215,3.12696 -2.40109,0.93466 -2.65273,1.3499 -1.59238,2.62755 1.83724,2.21374 -0.17357,3.97524 -2.88276,2.52533 -3.02177,-1.6172 -5.86816,-1.33167 -7.88414,0.79087 -0.98393,1.03594 -3.21387,2.18843 -4.95542,2.56111 -1.74155,0.37268 -3.41493,1.3251 -3.71862,2.11649 -1.19069,3.10289 -2.12587,1.14532 -2.35575,-4.93115 -0.13245,-3.50129 -0.91718,-7.66288 -1.74384,-9.24797 -1.90499,-3.65278 -1.89428,-4.38199 0.0644,-4.38199 1.35311,0 1.53301,-1.38677 1.25425,-9.66808 -0.24271,-7.20992 6.8e-4,-9.7768 0.95725,-10.09565 0.70548,-0.23516 2.50357,-1.44541 3.99575,-2.68944 2.68657,-2.2398 28.34908,-13.54683 30.74597,-13.54683 1.82521,0 2.5721,5.51829 3.01955,22.30979 0.21948,8.23629 0.57084,15.14685 0.78079,15.3568 0.20996,0.20996 0.94299,-0.29453 1.62897,-1.12108 0.906,-1.09167 1.20995,-6.40515 1.11096,-19.4212 -0.14328,-18.83953 -0.28142,-18.17461 4.6095,-22.18838 2.26176,-1.85613 3.01065,-2.17608 15.31731,-6.54399 11.30845,-4.01363 14.58564,-4.27283 15.5514,-1.23 0.37739,1.18906 0.81647,8.19782 0.97574,15.57501 0.15926,7.3772 0.54493,13.66845 0.85705,13.98057 0.31211,0.31211 1.29004,-0.0322 2.17317,-0.76513 1.25685,-1.04309 1.48933,-2.54052 1.07007,-6.8925 -0.2946,-3.05794 -0.52478,-6.23489 -0.51152,-7.05989 0.0133,-0.825 -0.0206,-5.16141 -0.0752,-9.63648 -0.0965,-7.90867 -0.0149,-8.20265 2.91353,-10.5 7.65993,-6.00913 8.96621,-6.86352 10.49373,-6.86352 3.10674,0 9.552,-3.97962 9.552,-5.89788 0,-2.8302 -2.62954,-4.65446 -4.48701,-3.1129 -0.82102,0.68138 -2.56128,0.96449 -3.88558,0.63211 -1.47646,-0.37056 -2.84276,-0.0668 -3.55401,0.79022 -0.63549,0.76572 -2.37196,1.69755 -3.85882,2.07073 -3.76847,0.94583 -5.21458,2.3713 -5.21458,5.14016 0,1.30766 -0.45,2.37756 -1,2.37756 -0.55,0 -1,-0.62779 -1,-1.3951 0,-2.37618 -8.24322,-10.21787 -13.5,-12.84242 -2.75,-1.37299 -7.925,-3.48486 -11.5,-4.69304 -3.575,-1.20819 -8.75,-3.26885 -11.5,-4.57924 -2.75,-1.3104 -6.8,-2.69044 -9,-3.06676 -2.2,-0.37632 -4.5968,-1.15911 -5.32622,-1.73953 -0.96063,-0.76441 -1.57663,-0.65955 -2.23468,0.38039 -1.33832,2.115 -1.13492,2.94807 0.5609,2.29733 0.92793,-0.35608 1.5,0.004 1.5,0.94452 0,1.25159 -0.49699,1.33253 -2.81341,0.45818 -1.86273,-0.7031 -2.79199,-1.75228 -2.75,-3.10487 0.0462,-1.48829 -0.75674,-2.21535 -2.95751,-2.67804 -1.66151,-0.34932 -4.36151,-1.43551 -6,-2.41376 -1.95437,-1.16684 -2.33399,-1.24293 -1.10365,-0.22119 3.00298,2.49382 1.39403,4.50343 -3.40796,4.25661 -3.08288,-0.15846 -4.65374,-0.84941 -6.04423,-2.65859 -1.03332,-1.34447 -1.88877,-1.88199 -1.901,-1.19449 -0.0305,1.71218 -3.50425,1.57907 -4.97291,-0.19056 -0.65756,-0.79231 -1.76739,-1.22112 -2.4663,-0.95293 -0.69891,0.2682 -2.76127,-0.90473 -4.58303,-2.60651 -2.19925,-2.05441 -3.84788,-2.85731 -4.90614,-2.38935 -0.87663,0.38763 -2.12243,0.62188 -2.76845,0.52055 -0.64603,-0.10133 -1.46009,0.27769 -1.80902,0.84228 -0.36235,0.5863 0.3558,1.04016 1.67459,1.05832 1.26996,0.0175 3.19512,0.7017 4.27812,1.52046 1.08301,0.81876 3.78301,1.96991 6,2.55812 2.217,0.58821 5.3809,1.65124 7.0309,2.3623 8.23804,3.55013 20.27927,8.3851 22.5,9.03453 3.06724,0.89698 10.78738,4.15733 13.5,5.70129 1.1,0.6261 3.575,1.47163 5.5,1.87896 1.925,0.40733 8.80909,2.57928 15.29798,4.82657 6.48889,2.24728 12.45139,4.08597 13.25,4.08597 2.44281,0 1.6192,1.86219 -1.54798,3.5 -1.65,0.85325 -3,2.22338 -3,3.04473 0,1.10311 -0.66933,1.32538 -2.56125,0.85054 -2.07978,-0.52199 -2.6693,-0.22963 -3.13605,1.55521 -0.57911,2.21453 -1.36402,2.26531 -7.41152,0.47945 -1.79696,-0.53065 -4.35296,2.0215 -4.37611,4.36952 -0.0252,2.55827 -2.41628,2.51148 -3.59262,-0.0703 -0.60844,-1.33538 -2.66156,-3.03822 -4.56248,-3.78408 -1.90093,-0.74587 -3.93967,-1.93863 -4.53055,-2.65059 -0.59087,-0.71196 -2.86073,-1.29447 -5.04414,-1.29447 -2.44816,0 -4.93895,-0.76231 -6.49815,-1.98878 -1.5981,-1.25706 -3.35499,-1.78131 -4.77514,-1.42487 -1.56227,0.3921 -3.09338,-0.22066 -5.02542,-2.01122 -1.52824,-1.41632 -3.95041,-2.57504 -5.38259,-2.57492 -2.46796,1.9e-4 -15.03831,-3.91578 -16.10398,-5.01679 -0.64754,-0.66902 -9.57986,-2.98342 -11.51435,-2.98342 -2.29657,0 -1.75505,1.94708 0.81307,2.92348 1.2643,0.48068 4.0768,2.55454 6.25,4.60858 2.17321,2.05403 5.07628,4.75309 6.45128,5.99789 1.375,1.24481 6.1,3.49171 10.5,4.99312 4.4,1.50141 9.21515,3.34793 10.70034,4.10338 3.32856,1.6931 7.0059,1.76731 8.59966,0.17355 0.84895,-0.84894 1.2,-0.86984 1.2,-0.0714 0,2.3311 3.04248,4.31907 5.0037,3.26945 2.87538,-1.53886 3.18326,-1.21299 1.41037,1.49278 -0.9924,1.51459 -3.25501,2.90838 -5.77305,3.55625 -8.63026,2.2205 -10.2002,3.07548 -13.05431,7.10933 -2.66458,3.76599 -3.02329,3.96704 -4.20195,2.35513 C 392.64578,524.9955 390,526.17643 390,529.3308 c 0,1.39226 -0.45,2.53138 -1,2.53138 -0.55,0 -1,-0.64468 -1,-1.43261 0,-3.65337 -7.85836,-1.98484 -9.38465,1.9926 -0.30392,0.79201 -1.11226,1.44001 -1.79632,1.44001 -1.85254,0 -17.773,-6.57373 -30.69908,-12.67598 -6.25903,-2.95481 -13.13063,-5.76572 -15.27024,-6.24645 -2.1396,-0.48074 -4.90018,-1.53584 -6.13461,-2.34468 -1.23444,-0.80883 -3.81283,-1.79879 -5.72977,-2.19991 -1.91693,-0.40112 -4.53687,-1.39609 -5.82209,-2.21104 -1.28522,-0.81496 -2.58298,-1.23553 -2.88392,-0.9346 -0.30093,0.30093 -1.65753,-0.32628 -3.01468,-1.39381 -1.35714,-1.06753 -3.98085,-2.22487 -5.83046,-2.57185 -1.84961,-0.34699 -3.88406,-1.25882 -4.521,-2.02629 -0.63694,-0.76746 -1.79209,-1.39539 -2.56701,-1.39539 -1.96465,0 -2.7034,-2.46399 -1.44419,-4.81685 0.7983,-1.49164 0.70513,-2.26433 -0.38179,-3.16639 -1.17982,-0.97917 -1.55969,-0.68402 -2.11725,1.64499 -1.05861,4.42207 -1.10618,4.43276 -8.06557,1.81326 -3.61652,-1.36126 -7.28041,-2.47501 -8.14198,-2.47501 -2.25089,0 -6.14773,-3.96062 -5.51617,-5.60645 0.35291,-0.91967 -0.18173,-1.39355 -1.57223,-1.39355 -1.15884,0 -2.10699,0.45 -2.10699,1 0,0.55 -0.675,1 -1.5,1 -0.825,0 -1.5,-0.37797 -1.5,-0.83994 0,-0.46197 -1.82759,-1.4431 -4.06131,-2.18029 -2.23371,-0.7372 -4.49955,-2.15922 -5.03518,-3.16006 -0.64075,-1.19726 -2.10671,-1.81971 -4.28568,-1.81971 -1.92408,0 -4.31873,-0.87476 -5.71482,-2.0876 -1.32166,-1.14819 -3.07801,-2.47322 -3.90301,-2.94453 -1.18345,-0.67608 -1.25945,-1.25061 -0.3601,-2.72252 0.99588,-1.62991 0.61686,-2.13698 -3,-4.01364 -2.27695,-1.18142 -5.4899,-2.46048 -7.1399,-2.84236 -1.65,-0.38188 -4.03363,-1.4946 -5.29696,-2.4727 -1.26333,-0.9781 -3.57917,-2.05999 -5.14631,-2.40419 -1.56714,-0.3442 -3.64075,-1.50032 -4.60802,-2.56914 -0.96728,-1.06883 -2.56238,-1.94332 -3.54468,-1.94332 -2.35567,0 -2.85207,-1.01621 -1.82444,-3.73487 0.68269,-1.80608 1.46378,-2.1628 4.07106,-1.85923 1.77446,0.2066 4.00814,-0.11263 4.96373,-0.7094 1.25645,-0.78467 2.42676,-0.77097 4.22746,0.0495 2.00078,0.91161 2.59862,0.85154 3.04271,-0.30573 0.30397,-0.79214 1.26836,-1.44026 2.14308,-1.44026 0.87472,0 1.31032,-0.45318 0.968,-1.00706 -1.88137,-3.04413 9.39168,-0.96774 22.31152,4.10958 1.45579,0.57211 3.02407,0.52299 4.25,-0.1331 1.33629,-0.71517 1.94285,-0.7166 1.94285,-0.005 0,0.56935 0.45,1.03518 1,1.03518 0.55,0 1,-0.9 1,-2 0,-1.1 0.45,-2 1,-2 0.55,0 1,0.39752 1,0.88337 0,1.51627 3.8707,1.97735 5.01588,0.59749 0.8341,-1.00502 0.54976,-1.46819 -1.21323,-1.97627 -7.29072,-2.10115 -12.51793,-6.1982 -11.452,-8.976 0.53771,-1.40123 2.17061,-2.30635 8.14935,-4.51718 1.1,-0.40676 4.15605,-1.74156 6.79123,-2.96623 l 4.79123,-2.22667 4.5083,2.11915 c 4.4916,2.1113 5.24492,2.03969 8.57968,-0.81562 1.37945,-1.18112 1.50433,-1.80899 0.58106,-2.92146 -0.92831,-1.11855 -0.7751,-1.71015 0.72738,-2.80879 1.04686,-0.76549 2.6962,-1.39179 3.6652,-1.39179 0.969,0 2.79549,-0.40871 4.05887,-0.90825 7.02742,-2.77861 16.28607,-5.22006 18.15281,-4.78677 2.16188,0.50179 19.88481,6.83116 29.14424,10.40824 2.75,1.06237 5.225,1.9825 5.5,2.04473 0.275,0.0622 3.46547,1.50086 7.08993,3.19695 3.62447,1.69609 9.84358,3.98543 13.82025,5.08743 3.97667,1.10199 8.21857,2.65115 9.42644,3.44257 2.30419,1.50977 9.07417,4.15742 14.16338,5.53912 1.65,0.44796 5.475,1.70635 8.5,2.79642 3.025,1.09007 6.98894,2.24544 8.80876,2.5675 1.81981,0.32206 6.08811,1.94152 9.48511,3.59881 3.39699,1.65729 6.9929,3.01325 7.9909,3.01325 0.998,0 3.0297,0.61301 4.51489,1.36224 1.48519,0.74923 4.64777,1.61109 7.02796,1.91525 2.38018,0.30416 5.11562,1.26615 6.07874,2.13776 0.96312,0.87161 2.67323,1.58475 3.80026,1.58475 1.88852,0 6.91907,1.72342 11.79338,4.0403 1.1,0.52286 6.275,2.32789 11.5,4.01119 5.225,1.68329 13.21677,4.44668 17.75949,6.14085 l 8.25949,3.08033 -3.15785,2.32978 c -1.73681,1.28138 -3.60239,2.47797 -4.14573,2.65908 -0.58454,0.19485 -0.42205,1.23534 0.39797,2.5484 1.02718,1.64478 2.21793,2.16306 4.6009,2.00258 1.76828,-0.11909 3.50662,0.075 3.86299,0.43141 0.35636,0.35637 0.8734,7.65205 1.14896,16.21264 0.5491,17.05801 0.33238,17.88172 -4.9845,18.9451 -1.76738,0.35347 -4.79479,1.90875 -6.72757,3.45617 -1.93278,1.54742 -4.75165,3.12102 -6.26415,3.49689 -1.5125,0.37586 -2.75,1.36954 -2.75,2.20817 0,0.83863 -0.5625,1.41683 -1.25,1.2849 -2.5292,-0.48538 -5.75,1.31805 -5.75,3.2196 0,2.08832 1.99011,2.4993 4.76357,0.98373 5.40502,-2.95359 14.26124,-6.10571 17.73643,-6.31278 l 4,-0.23834 0.6511,5.5 c 1.04887,8.86001 0.93643,23.96793 -0.1941,26.08034 -1.21677,2.27355 -8.22463,6.91966 -10.43713,6.91966 -0.83593,0 -2.41987,0.9 -3.51987,2 -1.1,1.1 -2.39752,2 -2.88337,2 -0.48585,0 -1.11655,0.89168 -1.40154,1.9815 -0.4181,1.59882 -1.26139,1.9368 -4.36642,1.75 -3.31349,-0.19933 -3.89268,0.0812 -4.16801,2.0185 -0.32307,2.27327 -2.18066,3.21902 -2.18066,1.11024 0,-0.62686 -0.76458,-1.69883 -1.69906,-2.38214 -1.47869,-1.08125 -1.67197,-3.08065 -1.49018,-15.41587 0.14566,-9.8835 0.65993,-15.25298 1.69906,-17.73998 1.55274,-3.71622 2.04221,-9.75347 0.74018,-9.1295 -6.24555,2.99305 -8.43553,3.88639 -12.25,4.99702 -3.77349,1.0987 -4.55109,1.75421 -4.81642,4.06023 -0.24517,2.13075 0.10386,2.75 1.55,2.75 1.02653,0 2.38331,-0.51689 3.01507,-1.14865 0.86487,-0.86487 1.74241,-0.75962 3.55196,0.42604 2.17689,1.42636 2.46737,2.505 3.08344,11.44991 1.1584,16.81913 -0.69341,25.2727 -5.53616,25.2727 -1.01317,0 -3.53092,1.50822 -5.59501,3.35161 -2.06408,1.84338 -4.90784,3.63124 -6.31946,3.97302 -1.41162,0.34177 -3.17195,1.75255 -3.91185,3.13506 -1.00914,1.8856 -2.11687,2.4957 -4.43342,2.44177 -1.69848,-0.0395 -4.2729,0.23383 -5.72093,0.6075 -1.67615,0.43252 -2.91182,0.2279 -3.40072,-0.56316 z M 428,500.30316 c 0,-0.24254 -0.45,-0.44098 -1,-0.44098 -0.55,0 -1,0.47656 -1,1.05902 0,0.58246 0.45,0.7809 1,0.44098 0.55,-0.33992 1,-0.81648 1,-1.05902 z m -56.5,-3.44098 c -0.33992,-0.55 -1.15398,-0.99311 -1.80902,-0.98469 -0.71561,0.009 -0.59227,0.40223 0.30902,0.98469 1.92112,1.24153 2.2673,1.24153 1.5,0 z m 45.10417,-3.72917 c -1.01652,-1.01651 -1.85525,0.5139 -1.02122,1.86339 0.63003,1.01941 0.86558,1.0202 1.2043,0.004 0.2316,-0.69479 0.14921,-1.53512 -0.18308,-1.86742 z M 405,493.86218 c 0,-0.55 -0.45,-1 -1,-1 -0.55,0 -1,0.45 -1,1 0,0.55 0.45,1 1,1 0.55,0 1,-0.45 1,-1 z m -125.03635,-4.45619 c 1.4091,-1.69787 0.57875,-3.54381 -1.5941,-3.54381 -2.01436,0 -4.65803,2.72421 -3.87429,3.99233 0.91747,1.4845 4.07935,1.22516 5.46839,-0.44852 z M 467.5,482.86218 c -0.33992,-0.55 -1.51803,-1 -2.61803,-1 -1.1,0 -1.72189,0.45 -1.38197,1 0.33992,0.55 1.51803,1 2.61803,1 1.1,0 1.72189,-0.45 1.38197,-1 z m -125,-4 c -0.33992,-0.55 -0.81648,-1 -1.05902,-1 -0.24254,0 -0.44098,0.45 -0.44098,1 0,0.55 0.47656,1 1.05902,1 0.58246,0 0.7809,-0.45 0.44098,-1 z m -88.64485,-1.32547 c 0.85585,-1.03123 0.32052,-1.6972 -2.41148,-3 C 247.3021,472.56173 247,472.52197 247,473.95189 c 0,1.08123 3.92368,4.8132 5.12756,4.87702 0.34515,0.0183 1.12257,-0.56319 1.72759,-1.2922 z m 66.70372,-0.20633 C 318.59154,475.84236 317,475.42379 317,476.3944 c 0,0.48594 3.81869,2.29797 5,2.37259 0.275,0.0174 -0.37351,-0.62911 -1.44113,-1.43661 z m 134.67018,-1.05034 c -0.61901,-3.23811 -2.65069,-4.06535 -5.81943,-2.36949 -2.92689,1.56642 -2.66982,3.14259 0.66452,4.07437 4.80812,1.34362 5.68239,1.05447 5.15491,-1.70488 z m -13.76559,-3.0637 c -1.6299,-0.69517 -3.78128,-1.28425 -4.78085,-1.30906 -1.35568,-0.0336 -1.65612,-0.55319 -1.18261,-2.0451 0.45047,-1.41932 0.1797,-2 -0.93261,-2 -0.86207,0 -1.56739,0.1882 -1.56739,0.41821 0,0.23002 -0.27314,1.13002 -0.60699,2 -0.39831,1.03799 -0.0545,1.58179 1,1.58179 0.88385,0 1.60699,0.70532 1.60699,1.56739 0,1.10699 0.58155,1.38281 1.97982,0.93902 1.0889,-0.34561 2.76679,-0.18796 3.72864,0.35031 0.96186,0.53828 2.19199,0.7048 2.73364,0.37005 0.54165,-0.33476 -0.34874,-1.17743 -1.97864,-1.87261 z m -116.75304,0.0146 c 0.18448,-0.55344 -0.9124,-1.6317 -2.4375,-2.39613 -1.52511,-0.76443 -3.38082,-1.83877 -4.1238,-2.38742 -2.26321,-1.67123 -4.2908,-1.55943 -3.94856,0.21773 0.33372,1.73284 7.63587,6.37103 9.23694,5.86713 0.51562,-0.16228 1.08844,-0.74787 1.27292,-1.30131 z M 430.8,467.66218 c 1.79188,-1.79188 1.45237,-2.67876 -0.8,-2.08975 -1.1,0.28766 -2,1.14553 -2,1.90638 0,1.70205 1.20257,1.7808 2.8,0.18337 z m -12.77525,-4.3651 c 1.27008,-3.34056 1.36228,-3.12776 -1.60057,-3.69414 -1.83824,-0.35141 -2.26777,-0.18435 -1.5,0.58342 1.5185,1.5185 1.33504,2.67582 -0.42418,2.67582 -1.56157,0 -1.98397,1.1827 -0.83333,2.33333 1.42421,1.42422 3.42642,0.55204 4.35808,-1.89843 z M 363.5,461.86218 c -0.33992,-0.55 -1.51803,-1 -2.61803,-1 -1.1,0 -1.72189,0.45 -1.38197,1 0.33992,0.55 1.51803,1 2.61803,1 1.1,0 1.72189,-0.45 1.38197,-1 z m -33.5,-13 c 0,-0.55 -0.42344,-1 -0.94098,-1 -0.51754,0 -1.2191,0.45 -1.55902,1 -0.33992,0.55 0.0835,1 0.94098,1 0.85746,0 1.55902,-0.45 1.55902,-1 z m -11,-3 c -0.825,-0.53316 -1.95,-0.96937 -2.5,-0.96937 -0.55,0 -0.325,0.43621 0.5,0.96937 0.825,0.53316 1.95,0.96937 2.5,0.96937 0.55,0 0.325,-0.43621 -0.5,-0.96937 z m -12,-5 c 0,-0.55 -0.47656,-1 -1.05902,-1 -0.58246,0 -0.7809,0.45 -0.44098,1 0.33992,0.55 0.81648,1 1.05902,1 0.24254,0 0.44098,-0.45 0.44098,-1 z m -11.1965,-4.94304 c -0.66739,-1.06867 -2.20457,-2.19179 -3.41594,-2.49583 -1.61459,-0.40523 -2.0626,-1.08776 -1.6784,-2.55696 0.29339,-1.12191 0.0326,-2.00417 -0.59253,-2.00417 -0.61415,0 -1.11663,0.675 -1.11663,1.5 0,0.85333 -0.89815,1.5 -2.08333,1.5 -1.20954,0 -1.91855,0.52428 -1.69045,1.25 0.52442,1.66849 6.70336,4.7465 9.53225,4.74845 1.98617,10e-4 2.11217,-0.23272 1.04503,-1.94149 z m 24.92565,162.21305 c -2.62397,-1.4089 -4.60601,-2.72648 -4.40454,-2.92795 0.5494,-0.54941 9.50057,3.56606 10.19299,4.68641 0.92377,1.4947 -0.58114,1.03752 -5.78845,-1.75846 z M 364.5,595.6732 c -12.05321,-5.54994 -21.96074,-10.17563 -36.5,-17.04139 -22.65619,-10.69873 -49.0605,-22.82266 -53.61145,-24.61648 -2.71149,-1.06877 -8.07066,-3.48578 -11.90927,-5.37115 -3.8386,-1.88536 -10.96911,-5.33027 -15.84556,-7.65535 -4.87646,-2.32508 -8.63192,-4.46179 -8.34546,-4.74824 0.28645,-0.28645 6.52628,2.26496 13.86628,5.6698 7.34,3.40484 14.92046,6.76613 16.84546,7.46951 1.925,0.70339 8.45,3.62482 14.5,6.49207 10.63109,5.03834 27.59146,12.55417 40,17.72564 3.3,1.37533 6.45,2.85377 7,3.28542 0.55,0.43164 7.525,3.54936 15.5,6.92824 7.975,3.37889 18.03098,7.78899 22.34662,9.80021 7.35847,3.42928 7.91009,3.54336 8.86684,1.83376 0.77642,-1.38739 1.20893,-1.51765 1.80998,-0.54513 0.94681,1.53197 -0.89138,5.98786 -2.43396,5.90007 -0.59921,-0.0341 -6.03948,-2.34125 -12.08948,-5.12698 z m -56.75,-3.87911 c -2.0625,-1.08883 -3.75,-2.17098 -3.75,-2.40477 0,-0.6068 7.31158,2.47844 8.45,3.56562 1.59779,1.52587 -0.67326,0.96494 -4.7,-1.16085 z m 68.85374,-1.52215 c -0.6801,-1.77234 0.0187,-3.40976 1.45528,-3.40976 0.51754,0 0.94098,1.125 0.94098,2.5 0,2.79733 -1.45932,3.35138 -2.39626,0.90976 z M 296.5,587.15722 c -1.65,-0.89369 -2.50566,-1.79045 -1.90148,-1.99281 1.59752,-0.53504 6.40148,1.47092 6.40148,2.67302 0,1.38469 -0.95378,1.24052 -4.5,-0.68021 z m 79.97884,-3.48958 c -0.32705,-0.85229 -0.45609,-2.75837 -0.28674,-4.23573 0.29915,-2.6098 -0.48745,-3.04186 -27.6921,-15.21037 -15.4,-6.88835 -32.95,-14.67328 -39,-17.29983 -6.05,-2.62656 -13.11281,-5.73946 -15.69514,-6.91755 -2.58232,-1.17809 -4.93617,-2.14198 -5.23078,-2.14198 -0.2946,0 -4.48179,-1.84981 -9.30486,-4.11069 -4.82307,-2.26088 -11.01922,-4.99838 -13.76922,-6.08333 -2.75,-1.08495 -8.15,-3.46937 -12,-5.29871 -13.74401,-6.5305 -32.0662,-14.75456 -36,-16.15888 -9.23027,-3.29509 -26.5,-11.6856 -26.5,-12.87504 0,-0.83973 0.78093,-1.08387 2.25,-0.7034 1.99631,0.517 1.91174,0.28451 -0.75,-2.06202 -6.08306,-5.36268 2.48145,-2.50143 24,8.01796 3.85,1.88208 11.725,5.36815 17.5,7.74681 13.41799,5.52673 17.24219,7.15775 24,10.23601 22.56128,10.2769 66.04483,28.81738 81.5,34.7499 6.6,2.53343 13.37387,5.2457 15.05304,6.02727 9.20859,4.28611 16.39652,7.34453 19.94696,8.4873 5.53558,1.78172 6.83285,2.92083 5.35471,4.70188 -0.81715,0.98461 -0.8533,1.72635 -0.11988,2.45977 1.35433,1.35433 0.42761,8.93375 -1.31961,10.79271 -1.16014,1.23434 -1.42221,1.21782 -1.93638,-0.12208 z m -48.08756,-32.81418 c -0.95225,-0.95225 -10.45196,-5.16957 -23.89128,-10.60635 -3.3,-1.33499 -6.78139,-2.86773 -7.73643,-3.40609 -0.95504,-0.53836 -2.53004,-0.95819 -3.5,-0.93295 -1.92039,0.05 7.66213,4.76109 17.23643,8.47406 3.3,1.27976 7.35,2.96427 9,3.74336 7.96815,3.76235 10.79208,4.62877 8.89128,2.72797 z M 286.59921,533.0227 c -0.85722,-1.38701 -19.6169,-9.32493 -20.90529,-8.84581 -0.65666,0.24419 0.83108,1.34587 3.30608,2.44816 2.475,1.1023 6.975,3.14472 10,4.53872 5.69757,2.62559 8.49613,3.31018 7.59921,1.85893 z M 263,522.99874 c 0,-0.47489 -2.8125,-2.10289 -6.25,-3.61779 -3.4375,-1.5149 -10.42757,-4.723 -15.5335,-7.12912 -14.80555,-6.97698 -28.28796,-12.5325 -29.46353,-12.14064 -0.59653,0.19884 2.47751,2.07677 6.83121,4.17317 4.3537,2.0964 9.49082,4.60739 11.41582,5.57997 1.925,0.97259 4.625,2.10368 6,2.51355 2.71543,0.80942 7.38289,2.79249 19,8.07253 8.47821,3.8534 8,3.70107 8,2.54833 z m 25.5,59.86344 c -0.33992,-0.55 -0.14148,-1 0.44098,-1 0.58246,0 1.05902,0.45 1.05902,1 0,0.55 -0.19844,1 -0.44098,1 -0.24254,0 -0.7191,-0.45 -1.05902,-1 z m 85.17032,-19.61373 c -1.55633,-0.8435 -7.25321,-3.28711 -12.65973,-5.43022 -5.40653,-2.14312 -16.50817,-6.88988 -24.67032,-10.54835 -14.86952,-6.66487 -31.7812,-13.90766 -38.34027,-16.42004 -1.925,-0.73735 -7.325,-3.11102 -12,-5.27484 -4.675,-2.16381 -10.75,-4.81537 -13.5,-5.89236 -6.44212,-2.52294 -24.2867,-10.24968 -32,-13.85605 -10.17861,-4.75905 -17.52874,-7.96641 -29.84887,-13.02508 C 198.05264,487.62854 190,483.36375 190,481.86439 c 0,-1.2914 5.941,0.95898 20.70631,7.8433 7.03653,3.28078 18.41869,8.30283 25.29369,11.16012 6.875,2.85728 14.75,6.2264 17.5,7.48692 2.75,1.26053 8.825,3.9627 13.5,6.00485 4.675,2.04214 10.975,4.82295 14,6.17959 3.025,1.35663 11.575,4.87115 19,7.81003 7.425,2.93888 14.85,6.03071 16.5,6.87073 2.57119,1.309 40.85005,16.93738 56,22.86351 6.59419,2.57941 7.85446,3.64671 6.38989,5.41142 -1.39504,1.68092 -1.68916,1.66703 -5.21957,-0.24641 z M 370.5,555.59349 c -6.35708,-2.63098 -27.43542,-11.78823 -38.5,-16.7259 -4.675,-2.08626 -12.55,-5.47044 -17.5,-7.52041 -4.95,-2.04997 -13.05,-5.51841 -18,-7.70766 -4.95,-2.18924 -12.375,-5.28233 -16.5,-6.87353 -4.125,-1.5912 -9.3,-3.77846 -11.5,-4.86057 -2.2,-1.08212 -7.825,-3.5116 -12.5,-5.39884 -4.675,-1.88724 -13.675,-5.77945 -20,-8.64936 -6.325,-2.8699 -15.325,-6.78791 -20,-8.70668 -15.11205,-6.20248 -26,-11.62441 -26,-12.94735 0,-1.4724 0.23453,-1.39785 13,4.13205 10.23005,4.43158 12.45643,5.41995 21.5,9.5446 3.85,1.75593 13.3,5.80248 21,8.99233 7.7,3.18984 17.6,7.35961 22,9.26614 27.39537,11.87048 51.30329,21.92703 59.5,25.02789 3.575,1.35244 13.025,5.12925 21,8.39292 7.975,3.26367 17.875,7.2218 22,8.79584 8.20449,3.13073 10.59564,4.73443 9.55931,6.41126 -0.94474,1.52862 -3.25472,1.22959 -9.05931,-1.17273 z m 2,-5.75804 c -5.87526,-2.61852 -52.09354,-22.29588 -61.5,-26.18353 -4.125,-1.70485 -13.02609,-5.50498 -19.7802,-8.44473 -6.75412,-2.93976 -12.54785,-5.34501 -12.87496,-5.34501 -0.32711,0 -3.12602,-1.10273 -6.21979,-2.45052 -3.09378,-1.34778 -12.37505,-5.34169 -20.62505,-8.87534 -8.25,-3.53366 -17.025,-7.34111 -19.5,-8.46101 -2.475,-1.1199 -7.425,-3.23771 -11,-4.70626 -3.575,-1.46855 -9.2,-3.91728 -12.5,-5.44162 -3.3,-1.52434 -8.8125,-4.05626 -12.25,-5.62648 -3.4375,-1.57022 -6.25,-3.4738 -6.25,-4.23019 0,-0.75639 0.3375,-1.22525 0.75,-1.04191 3.69396,1.64176 21.54494,10.29491 24.44812,11.85107 2.03396,1.09024 4.30131,1.98226 5.03856,1.98226 0.73724,0 3.12308,0.9163 5.30188,2.03622 2.17879,1.11992 10.48644,4.68075 18.46144,7.91294 7.975,3.2322 21.25,8.87962 29.5,12.54982 8.25,3.6702 17.25,7.35956 20,8.19858 2.75,0.83902 7.025,2.53829 9.5,3.77616 2.475,1.23786 10.35,4.58459 17.5,7.43716 7.15,2.85257 13.9,5.59564 15,6.09572 1.1,0.50008 6.1028,2.46267 11.11734,4.36133 5.01454,1.89865 11.53954,4.55775 14.5,5.9091 2.96046,1.35136 7.9669,3.30435 11.12542,4.33999 4.0777,1.33703 5.74486,2.39038 5.75,3.63298 0.008,1.89481 -2.20913,2.18673 -5.49276,0.72327 z m -166,-15.58699 c -11.78986,-5.4292 -16.66745,-8.4483 -13.46429,-8.33405 2.02249,0.0721 28.82618,13.8413 26.96429,13.85167 -0.825,0.005 -6.9,-2.47834 -13.5,-5.51762 z m 23,-1.38628 c -2.2,-1.01842 -3.41515,-1.88505 -2.70034,-1.92584 1.42249,-0.0812 7.20034,2.68847 7.20034,3.45152 0,0.5905 0.2668,0.68096 -4.5,-1.52568 z m -27.41062,-12.56226 c -6.27584,-2.99741 -11.1337,-5.72675 -10.79524,-6.06521 C 191.90305,513.62579 215,524.50193 215,525.39758 c 0,0.92798 -1.69872,0.25726 -12.91062,-5.09766 z m 190.3695,-18.50427 c -0.36253,-0.58659 -0.4085,-1.31719 -0.10214,-1.62354 0.82264,-0.82264 3.64326,0.46152 3.64326,1.65869 0,1.35725 -2.69711,1.33048 -3.54112,-0.0351 z M 447.5,492.48157 c -2.2,-0.61566 -4.5625,-1.48345 -5.25,-1.92841 -1.74026,-1.12631 -1.56654,-3.69098 0.25,-3.69098 0.825,0 1.5,0.43844 1.5,0.97432 0,1.51992 5.57109,4.02568 8.95034,4.02568 1.67731,0 3.04966,0.45 3.04966,1 0,1.23683 -3.2385,1.09182 -8.5,-0.38061 z M 231.56429,471.15531 c -0.54268,-1.4252 -0.42782,-1.54006 0.5598,-0.5598 0.68342,0.67834 0.99067,1.48524 0.68278,1.79313 -0.30788,0.30789 -0.86705,-0.24711 -1.24258,-1.23333 z m 48.45538,-43.28098 c -1.24141,-0.76722 -1.19563,-1.0074 0.30148,-1.58189 2.08649,-0.80066 3.44889,0.1997 2.10382,1.54477 -0.56802,0.56802 -1.52247,0.58275 -2.4053,0.0371 z"
         id="path2726"
         inkscape:connector-curvature="0" />
      <path
         style="fill:#9c3b2e"
         d="m 360.63723,617.16023 c -9.27452,-4.62321 -16.59637,-8.67224 -16.27077,-8.99784 0.3256,-0.3256 6.24568,2.17365 13.15574,5.55389 11.9545,5.84788 16.3442,7.35678 14.97979,5.14913 -0.57859,-0.93619 -6.23807,-3.74939 -16.41484,-8.15947 -7.57454,-3.28241 -27.12214,-13.1421 -26.76443,-13.49981 0.34879,-0.3488 11.48876,3.99562 14.50313,5.656 0.92078,0.50718 4.14915,2.02316 7.17415,3.36884 3.025,1.34568 8.875,3.98353 13,5.86189 4.125,1.87835 8.90114,3.97404 10.61364,4.65709 2.74696,1.09565 3.11363,1.70532 3.11363,5.17707 0,2.16434 -0.0511,3.86854 -0.11363,3.78711 -0.0625,-0.0814 -7.70189,-3.93068 -16.97641,-8.5539 z m 23.83628,-2.77388 c -0.38832,-4.66171 -0.48044,-9.06374 -0.2047,-9.78229 0.27573,-0.71855 0.12548,-3.68411 -0.33391,-6.59014 -0.46152,-2.91961 -0.44729,-6.30405 0.0318,-7.56419 0.95583,-2.51402 9.31933,-8.93408 13.1194,-10.07083 1.32764,-0.39714 3.88416,-1.56528 5.68115,-2.59586 4.37129,-2.50694 16.88515,-6.25371 18.1911,-5.4466 1.11985,0.69211 1.50919,30.14374 0.43548,32.94179 -0.63258,1.64848 -10.43269,6.73319 -21.15048,10.97375 -3.44115,1.36152 -7.43934,3.40579 -8.88486,4.54284 -5.06601,3.98493 -6.09935,3.02311 -6.88499,-6.40847 z M 369,609.89402 c -3.575,-1.55498 -8.975,-3.89216 -12,-5.19372 -3.025,-1.30157 -6.175,-2.79433 -7,-3.31725 -1.60905,-1.01988 -14.70874,-7.4219 -21.84733,-10.67713 -2.39104,-1.09033 -4.12366,-2.20608 -3.85029,-2.47946 0.27338,-0.27337 3.35468,0.82513 6.84734,2.44112 3.49265,1.61599 12.20028,5.53256 19.35028,8.70348 19.71205,8.74201 27.5,12.41817 27.5,12.98085 0,1.02815 -2.64791,0.305 -9,-2.45789 z m -29,-3.03184 c -0.825,-0.53316 -1.05,-0.96937 -0.5,-0.96937 0.55,0 1.675,0.43621 2.5,0.96937 0.825,0.53316 1.05,0.96937 0.5,0.96937 -0.55,0 -1.675,-0.43621 -2.5,-0.96937 z m 26.5,-4.52178 c -4.95,-2.41685 -11.7,-5.60775 -15,-7.09089 -3.3,-1.48315 -12.89661,-6.00204 -21.32581,-10.04198 -8.4292,-4.03994 -15.47659,-7.34535 -15.66087,-7.34535 -0.18428,0 -3.63766,-1.52796 -7.67419,-3.39548 -4.03652,-1.86751 -10.82663,-4.98823 -15.08913,-6.93493 -4.2625,-1.9467 -7.75,-3.75609 -7.75,-4.02088 0,-0.53105 20.21011,8.06733 32,13.6144 4.125,1.94078 14.925,6.78105 24,10.75614 9.075,3.9751 20.69904,9.19694 25.83121,11.6041 5.13216,2.40716 9.96966,4.37665 10.75,4.37665 0.78033,0 1.41879,0.675 1.41879,1.5 0,2.23046 -1.60826,1.80787 -11.5,-3.02178 z m -33.5,1.52178 c -1.21948,-0.78809 -1.09025,-0.97224 0.69098,-0.98469 1.20504,-0.008 2.4691,0.43469 2.80902,0.98469 0.78687,1.27319 -1.52988,1.27319 -3.5,0 z m 95.99411,-2.50709 c -1.6334,-1.96813 -2.54883,-29.58789 -1.07212,-32.34716 1.3713,-2.56228 15.24072,-12.95791 19.0679,-14.29207 3.35393,-1.16919 3.57471,-1.69928 1.74815,-4.19726 -1.37808,-1.88463 -1.53157,-1.82617 -15.44353,5.88181 -2.86302,1.58627 -5.45844,2.63117 -5.76761,2.322 -0.30917,-0.30916 -0.75885,-8.48249 -0.99931,-18.16295 l -0.43718,-17.60082 3.70479,-2.90234 c 5.07587,-3.97644 23.57731,-11.19412 28.69443,-11.19412 2.92864,0 3.19052,1.25705 3.90966,18.76709 0.54624,13.3003 0.9636,15.00655 3.2139,13.13897 0.78933,-0.65508 1.66331,-0.96289 1.94218,-0.68402 0.85753,0.85752 -3.76441,3.27097 -9.80537,5.1201 -5.30218,1.62298 -5.75,1.98973 -5.75,4.70896 0,2.17301 0.4736,2.9489 1.8,2.9489 0.99,0 2.29169,-0.49169 2.89264,-1.09264 1.43286,-1.43286 4.94533,0.37664 5.76907,2.97201 1.06384,3.35186 0.83339,28.70071 -0.27983,30.78079 -0.58515,1.09336 -2.8049,2.50953 -4.93278,3.14706 -2.12788,0.63753 -4.93287,2.29171 -6.2333,3.67596 -1.30044,1.38425 -3.1253,2.51682 -4.05526,2.51682 -0.92995,0 -2.81625,0.88526 -4.19177,1.96725 -1.37552,1.08198 -2.80999,1.6582 -3.18771,1.28048 -0.37772,-0.37772 -0.4073,0.0415 -0.0657,0.9316 0.6985,1.82026 -1.03247,3.41095 -2.00297,1.84065 -0.40251,-0.65127 -1.65847,-0.47866 -3.51944,0.48369 -3.54934,1.83543 -3.46644,1.83561 -4.9988,-0.0108 z m -70.99596,-9.57937 c -31.16535,-14.40251 -35.31356,-16.34946 -43.97054,-20.63745 -4.69019,-2.32316 -7.17761,-3.94861 -5.52761,-3.61212 1.65,0.33649 3.45,0.9502 4,1.3638 1.27226,0.95673 28.16026,13.00691 40,17.92649 4.95,2.05679 12.01873,5.1585 15.7083,6.89268 3.68956,1.73418 7.40206,3.15306 8.25,3.15306 0.84793,0 1.5417,0.675 1.5417,1.5 0,0.825 -0.56333,1.5 -1.25185,1.5 -0.68852,0 -9.12602,-3.63891 -18.75,-8.08646 z m -46.29789,-2.32789 c -6.05869,-2.96867 -7.49804,-4.34485 -2.20026,-2.1037 2.2,0.93068 5.0125,2.09183 6.25,2.58034 2.16941,0.8564 3.04632,1.97091 1.5,1.90644 -0.4125,-0.0172 -2.90988,-1.08959 -5.54974,-2.38308 z M 297.5,586.86218 c -0.78218,-1.2656 0.54163,-1.2656 2.5,0 1.29269,0.8354 1.26629,0.97149 -0.19098,0.98469 -0.93004,0.008 -1.9691,-0.43469 -2.30902,-0.98469 z m 15.66029,-3.16122 c -2.38684,-1.09598 -4.11835,-2.21406 -3.8478,-2.48461 0.27055,-0.27055 2.67342,0.64313 5.33971,2.0304 5.74375,2.98847 4.71157,3.30271 -1.49191,0.45421 z M 297.5,582.86218 c -3.81285,-2.52515 -2.11235,-2.52515 2.5,0 1.925,1.05389 2.825,1.93207 2,1.9515 -0.825,0.0194 -2.85,-0.85875 -4.5,-1.9515 z m 79.5,-1.87756 c 0,-1.16734 0.42344,-2.12244 0.94098,-2.12244 1.73246,0 2.053,1.7601 0.54801,3.00914 C 377.24988,582.89969 377,582.75088 377,580.98462 Z m 90.72457,1.2688 C 467.32606,581.8549 467,575.22092 467,567.51124 c 0,-19.48509 0.63169,-20.69579 13.75044,-26.35442 10.23184,-4.41339 16.64368,-6.084 17.57389,-4.57889 0.30435,0.49246 0.83158,7.32827 1.17162,15.1907 l 0.61826,14.29533 -4.26445,3.93692 c -2.55198,2.35598 -5.99386,4.37239 -8.57106,5.02134 -2.43103,0.61214 -5.28044,2.22885 -6.54266,3.71219 -1.41058,1.65769 -3.34353,2.67652 -5.23604,2.75982 -1.65,0.0726 -3.91144,0.43618 -5.02543,0.8079 -1.11398,0.37172 -2.35148,0.3498 -2.75,-0.0487 z m -170.1657,-5.92304 c -1.06762,-0.80751 -1.49113,-1.4682 -0.94113,-1.4682 0.55,0 1.87351,0.66069 2.94113,1.4682 1.06762,0.8075 1.49113,1.46819 0.94113,1.46819 -0.55,0 -1.87351,-0.66069 -2.94113,-1.46819 z m 87.80462,-1.68908 c -0.415,-0.67148 -0.82267,-8.52653 -0.90593,-17.45566 l -0.15139,-16.23478 3.6089,-2.90019 c 1.98489,-1.5951 9.0035,-5.15881 15.59691,-7.91936 14.23886,-5.96157 16.16877,-6.60036 16.79733,-5.55981 0.44796,0.74158 0.90582,5.80856 2.21757,24.54139 0.30689,4.38274 0.10933,8.56052 -0.45466,9.61434 -0.90855,1.69764 -4.13433,3.47129 -15.55366,8.55192 -3.64051,1.61972 -3.82805,1.88356 -2.19016,3.08121 1.03053,0.75355 1.37052,1.56986 0.80054,1.92213 -0.54491,0.33677 -1.2734,0.15497 -1.61886,-0.404 -1.04048,-1.68354 -4.33622,-1.15763 -9.29793,1.48369 -5.18712,2.76132 -7.70745,3.12564 -8.84866,1.27912 z M 361,569.23558 c -6.875,-3.00431 -17,-7.515 -22.5,-10.02374 -12.59091,-5.74317 -17.94882,-8.15668 -23,-10.36051 -2.2,-0.95986 -6.475,-2.87933 -9.5,-4.26548 -3.025,-1.38615 -7.25659,-3.24694 -9.40354,-4.1351 -2.14695,-0.88815 -3.65026,-1.8681 -3.3407,-2.17766 0.30956,-0.30957 3.86616,0.89114 7.90354,2.66823 4.03739,1.7771 15.8907,6.71399 26.3407,10.97087 10.45,4.25688 25.075,10.2846 32.5,13.39492 7.425,3.11033 14.5125,6.07298 15.75,6.58367 1.2375,0.51069 2.25,1.38817 2.25,1.94996 0,2.03625 -4.74077,0.75201 -17,-4.60516 z m -72.75,3.13573 c -1.7875,-0.77692 -3.25,-1.6359 -3.25,-1.90884 0,-0.77367 5.93555,1.4864 6.56086,2.49818 0.70083,1.13397 0.62157,1.11986 -3.31086,-0.58934 z M 355,561.48754 c -26.06754,-11.55483 -32.37879,-14.5799 -31.74356,-15.21514 0.483,-0.48299 13.7152,4.70279 46.99356,18.41709 4.8125,1.98327 8.75,3.95846 8.75,4.38932 0,2.13579 -7.17773,-0.13455 -24,-7.59127 z m -56.49292,2.38609 c -0.35034,-0.56686 0.0511,-0.7345 0.94098,-0.39301 1.73242,0.66479 2.04939,1.38156 0.61096,1.38156 -0.51754,0 -1.21592,-0.44485 -1.55194,-0.98855 z M 374,562.61303 c -1.375,-0.60829 -4.75,-2.12052 -7.5,-3.36051 -2.75,-1.23998 -8.375,-3.60063 -12.5,-5.24586 -4.125,-1.64524 -10.65,-4.53006 -14.5,-6.41072 -3.85,-1.88066 -9.15219,-4.23186 -11.78266,-5.2249 -4.81114,-1.81627 -6.98128,-3.50886 -4.49886,-3.50886 0.73508,0 2.22414,0.61097 3.30901,1.35771 1.08488,0.74674 3.77251,1.92488 5.97251,2.61809 2.2,0.69321 5.35,1.84547 7,2.56058 5.08774,2.20503 20.5318,8.44518 30.27143,12.23111 5.09928,1.98217 9.12116,4.05474 8.9375,4.60572 -0.49875,1.49625 -1.92232,1.61042 -4.70893,0.37764 z m -97.12756,-2.41457 c -1.2554,-1.52184 -1.15924,-1.55292 1.12756,-0.36455 3.35245,1.74217 3.60481,2.02827 1.78911,2.02827 -0.84932,0 -2.16182,-0.74867 -2.91667,-1.66372 z m -54.32412,-2.2581 c -0.37258,-0.60284 -0.39593,-1.98297 -0.0519,-3.06695 0.34404,-1.08398 0.20693,-2.71887 -0.3047,-3.63308 -1.14346,-2.04326 -0.38392,-5.37815 1.22489,-5.37815 2.61352,0 3.32545,2.07079 2.34293,6.81492 -1.06538,5.14425 -2.16794,6.95135 -3.21124,5.26326 z M 373,555.41621 c -7.42422,-2.76827 -39.56446,-16.78933 -40.77417,-17.78759 -2.94163,-2.42744 0.22112,-1.61509 10.91801,2.8043 6.24589,2.58046 15.85616,6.45788 21.35616,8.61649 14.79789,5.8078 14.66201,5.74162 13.99737,6.81702 -0.75272,1.21793 -1.09979,1.18951 -5.49737,-0.45022 z m -105,-5.05403 c -1.375,-0.78602 -2.05,-1.42913 -1.5,-1.42913 0.55,0 2.125,0.64311 3.5,1.42913 1.375,0.78602 2.05,1.42913 1.5,1.42913 -0.55,0 -2.125,-0.64311 -3.5,-1.42913 z m 97.2089,-4.48274 c -17.52146,-7.30882 -44.21849,-19.341 -43.81318,-19.74632 0.22294,-0.22293 10.0126,3.47572 21.75481,8.21922 11.74221,4.7435 24.05487,9.61124 27.36147,10.8172 3.30661,1.20595 6.23161,2.63648 6.5,3.17894 1.02744,2.07659 -2.85066,1.26535 -11.8031,-2.46904 z M 318.25,544.83102 c -1.2375,-0.49742 -2.25,-1.14389 -2.25,-1.43662 0,-0.97061 1.59154,-0.55204 3.55887,0.93598 2.21231,1.67331 1.90296,1.79163 -1.30887,0.50064 z M 307.5,539.9169 c -2.2,-1.04105 -3.71746,-1.92925 -3.37212,-1.97377 0.97104,-0.12519 7.87212,2.88388 7.87212,3.43247 0,0.67026 -0.003,0.66921 -4.5,-1.4587 z m 160.99946,-1.30472 c -1.66316,-4.74891 -2.74177,-28.42873 -1.40841,-30.92013 0.96309,-1.79955 11.16723,-8.82987 12.81609,-8.82987 0.47757,0 3.82528,-1.38373 7.43934,-3.07496 3.61407,-1.69122 7.60209,-2.92872 8.86228,-2.75 2.1987,0.31184 2.31847,0.80962 2.96542,12.32496 0.3708,6.6 0.42847,14.11379 0.12816,16.69731 -0.49839,4.28751 -0.81892,4.75559 -3.67418,5.36547 -1.72049,0.36749 -3.57816,1.0256 -4.12816,1.46247 -1.64385,1.30572 -20.75896,10.97475 -21.69644,10.97475 -0.47648,0 -1.06333,-0.5625 -1.3041,-1.25 z M 282.75,534.79805 c -3.1625,-1.63236 -5.75,-3.14225 -5.75,-3.3553 0,-0.70272 13.18504,4.20447 14.30434,5.32377 2.16262,2.16262 -2.73376,1.03589 -8.55434,-1.96847 z m 13.75,0.91222 c -6.95249,-2.90152 -13.46236,-6.21906 -13.03737,-6.64405 0.19578,-0.19579 3.50971,1.02821 7.36428,2.71999 3.85458,1.69178 7.38289,3.09028 7.8407,3.10777 0.45782,0.0175 1.7059,0.6925 2.77352,1.5 2.67321,2.02192 0.98084,1.78774 -4.94113,-0.68371 z m 13.5,-1.42524 -2.5,-1.50628 2.5,0.65411 c 1.375,0.35976 2.9275,1.05353 3.45,1.54171 1.52746,1.42714 -0.66379,0.98918 -3.45,-0.68954 z m 16,0.57715 c -0.825,-0.53316 -1.05,-0.96937 -0.5,-0.96937 0.55,0 1.675,0.43621 2.5,0.96937 0.825,0.53316 1.05,0.96937 0.5,0.96937 -0.55,0 -1.675,-0.43621 -2.5,-0.96937 z m -7.5,-3 c -0.78218,-1.2656 0.54163,-1.2656 2.5,0 1.29269,0.8354 1.26629,0.97149 -0.19098,0.98469 -0.93004,0.008 -1.9691,-0.43469 -2.30902,-0.98469 z m -17.5,-1 c -1.29269,-0.8354 -1.26629,-0.97149 0.19098,-0.98469 0.93004,-0.008 1.9691,0.43469 2.30902,0.98469 0.78218,1.2656 -0.54163,1.2656 -2.5,0 z m 13,-1 c -0.825,-0.53316 -1.05,-0.96937 -0.5,-0.96937 0.55,0 1.675,0.43621 2.5,0.96937 0.825,0.53316 1.05,0.96937 0.5,0.96937 -0.55,0 -1.675,-0.43621 -2.5,-0.96937 z m -43.5,-1 c -0.33992,-0.55 -0.16803,-1 0.38197,-1 0.55,0 1.27811,0.45 1.61803,1 0.33992,0.55 0.16803,1 -0.38197,1 -0.55,0 -1.27811,-0.45 -1.61803,-1 z m 21.59868,-1.55449 c -1.87072,-0.81192 -3.15069,-1.72684 -2.84436,-2.03316 0.30632,-0.30633 2.28691,0.35569 4.40132,1.47115 4.45985,2.35281 3.42767,2.72539 -1.55696,0.56201 z M 263,525.86218 c -1.925,-1.05389 -2.825,-1.91617 -2,-1.91617 0.825,0 3.075,0.86228 5,1.91617 1.925,1.05389 2.825,1.91617 2,1.91617 -0.825,0 -3.075,-0.86228 -5,-1.91617 z m 121.7242,-1.75 c -1.5064,-3.12141 -1.18238,-8.56786 0.36659,-6.16211 0.77118,1.19773 1.04443,1.20228 1.79993,0.0299 0.75696,-1.17464 1.35761,-1.17553 4,-0.006 1.7101,0.75697 3.10928,1.91489 3.10928,2.57317 0,1.87126 2.05095,2.67192 3.33713,1.30278 0.88631,-0.94348 0.86135,-1.34829 -0.10499,-1.70216 -4.26659,-1.56241 -4.92336,-6.28239 -0.87515,-6.28945 1.80918,-0.003 1.62903,-0.31711 -1.15649,-2.0154 -5.04301,-3.07466 -2.83246,-4.33055 2.61177,-1.48384 2.59274,1.35571 7.14883,2.92666 10.12463,3.49101 2.97581,0.56435 5.59129,1.20683 5.81219,1.42773 0.86321,0.86321 -4.03154,1.73016 -6.40505,1.13445 -1.46032,-0.36651 -2.26966,-0.23888 -1.93357,0.30492 0.83469,1.35056 -2.54973,2.40561 -3.77769,1.17765 -1.60687,-1.60687 -2.49459,-1.22035 -1.95308,0.85041 0.27086,1.03575 -0.26005,3.3384 -1.17979,5.11698 l -1.67226,3.23379 -3.48631,-3.69615 c -2.1396,-2.26838 -4.06223,-3.47516 -4.97721,-3.12404 -1.76183,0.67607 -0.8793,2.58623 1.19489,2.58623 1.75443,0 1.85639,1.18459 0.24098,2.8 -1.92674,1.92674 -3.6522,1.39984 -5.0758,-1.55 z M 298.25,523.27774 c -1.7875,-0.78171 -3.25,-1.65104 -3.25,-1.93185 0,-0.52092 7.01474,2.1977 7.8653,3.04826 0.85063,0.85063 -1.31552,0.32665 -4.6153,-1.11641 z m -43.75,-1.41556 c -0.33992,-0.55 -0.16803,-1 0.38197,-1 0.55,0 1.27811,0.45 1.61803,1 0.33992,0.55 0.16803,1 -0.38197,1 -0.55,0 -1.27811,-0.45 -1.61803,-1 z m 42,-5.5067 c -2.75,-1.36453 -3.875,-2.20484 -2.5,-1.86735 3.59855,0.88327 9,3.1777 9,3.82302 0,0.99127 -1.42493,0.56254 -6.5,-1.95567 z m -56.5,-0.9933 c -1.375,-0.78602 -2.02351,-1.44508 -1.44113,-1.46456 0.58238,-0.0195 1.93238,0.62525 3,1.43276 2.46898,1.86744 1.68038,1.88353 -1.55887,0.0318 z m 133.6875,0.85417 c -1.37384,-1.37385 -0.66124,-3.49576 1.0625,-3.1638 0.9625,0.18536 1.75,0.96836 1.75,1.73999 0,1.57886 -1.76429,2.47201 -2.8125,1.42381 z m -124.18042,-1.34272 c -0.35034,-0.56686 0.0511,-0.7345 0.94098,-0.39301 1.73242,0.66479 2.04939,1.38156 0.61096,1.38156 -0.51754,0 -1.21592,-0.44485 -1.55194,-0.98855 z m 13,-1 c -0.35034,-0.56686 0.0511,-0.7345 0.94098,-0.39301 1.73242,0.66479 2.04939,1.38156 0.61096,1.38156 -0.51754,0 -1.21592,-0.44485 -1.55194,-0.98855 z M 359,513.36218 c 0,-1.68305 0.18315,-1.75069 2.41821,-0.89301 2.2344,0.85742 1.96604,2.39301 -0.41821,2.39301 -1.11111,0 -2,-0.66667 -2,-1.5 z m -88.55887,-2.05517 c -1.86402,-1.49339 -1.85176,-1.51185 0.30887,-0.46481 1.2375,0.59969 2.25,1.29951 2.25,1.55516 0,0.76522 -0.51861,0.54424 -2.55887,-1.09035 z M 351,509.86218 c 0,-0.55 0.64844,-1 1.44098,-1 0.79254,0 1.7191,0.45 2.05902,1 0.33992,0.55 -0.30852,1 -1.44098,1 -1.13246,0 -2.05902,-0.45 -2.05902,-1 z m -5.86578,-0.78344 c -1.30117,-0.2123 -2.59116,-1.24788 -2.86663,-2.30128 -0.30764,-1.17643 -1.37528,-1.91528 -2.76759,-1.91528 -1.45945,0 -2.53667,-0.80133 -3.02467,-2.25 -1.20649,-3.58156 -1.10356,-3.97346 1.27467,-4.85322 1.35675,-0.5019 2.25,-0.44812 2.25,0.13544 0,1.56948 1.31636,1.12327 4.32844,-1.4672 l 2.82845,-2.43253 -2.95166,-1.52636 C 340.95913,490.78969 340,491.18097 340,494.18383 c 0,1.90186 -0.084,1.91227 -1.93256,0.23938 -1.06291,-0.96192 -1.71743,-2.30957 -1.45449,-2.99477 0.63028,-1.6425 -1.41465,-3.25566 -5.11854,-4.03777 l -2.99441,-0.63231 2.75,1.58385 c 1.5125,0.87111 2.75,2.02805 2.75,2.57096 0,0.56953 -1.16334,0.70905 -2.75,0.3298 -3.74237,-0.8945 -4.42693,-1.36833 -3.93327,-2.72243 0.23226,-0.6371 -0.27335,-1.95649 -1.12359,-2.93199 -1.17996,-1.35379 -1.26905,-2.05046 -0.37638,-2.94313 0.89268,-0.89268 1.82208,-0.68989 3.92637,0.85671 1.51628,1.11442 4.14874,2.30095 5.84991,2.63674 1.70117,0.33579 6.42617,2.16117 10.5,4.05641 4.07383,1.89523 8.64446,3.72919 10.15696,4.07544 3.43574,0.78655 3.60986,2.59146 0.25,2.59146 -1.375,0 -2.5,-0.45 -2.5,-1 0,-0.55 -0.66986,-1 -1.48857,-1 -1.92551,0 -5.51143,3.07245 -5.51143,4.72224 0,1.95694 2.57957,1.51807 3.59719,-0.612 0.70014,-1.46553 1.40417,-1.69863 3.13616,-1.03838 2.41299,0.91985 2.15235,3.92814 -0.34034,3.92814 -0.76615,0 -1.39301,0.45 -1.39301,1 0,0.55 0.9,1 2,1 1.1,0 2,0.48032 2,1.06739 0,0.59668 -0.84486,0.79924 -1.91584,0.45932 -1.05372,-0.33443 -2.19958,-0.14898 -2.54636,0.41213 -0.41847,0.67709 -1.27227,0.61943 -2.53868,-0.17146 -2.51252,-1.56909 -3.88604,-0.1364 -1.52463,1.59031 2.12652,1.55495 1.04792,2.41168 -2.34027,1.85887 z M 388,507.86218 c -0.90129,-0.58246 -1.02463,-0.97549 -0.30902,-0.98469 0.65504,-0.008 1.4691,0.43469 1.80902,0.98469 0.7673,1.24153 0.42112,1.24153 -1.5,0 z m -142,-1 c -0.90129,-0.58246 -1.02463,-0.97549 -0.30902,-0.98469 0.65504,-0.008 1.4691,0.43469 1.80902,0.98469 0.76731,1.24153 0.42112,1.24153 -1.5,0 z m 9,-2 c -0.825,-0.53316 -1.05,-0.96937 -0.5,-0.96937 0.55,0 1.675,0.43621 2.5,0.96937 0.825,0.53316 1.05,0.96937 0.5,0.96937 -0.55,0 -1.675,-0.43621 -2.5,-0.96937 z m -41,-1 c -0.90129,-0.58246 -1.02463,-0.97549 -0.30902,-0.98469 0.65504,-0.008 1.4691,0.43469 1.80902,0.98469 0.76731,1.24153 0.42112,1.24153 -1.5,0 z m 161.75,-0.29942 c -1.5125,-0.59767 -2.75,-1.44015 -2.75,-1.87218 0,-0.81372 4.77766,0.93552 6.45,2.36153 1.26809,1.0813 -0.22486,0.88385 -3.7,-0.48935 z M 250,502.86218 c -1.29269,-0.8354 -1.26629,-0.97149 0.19098,-0.98469 0.93004,-0.008 1.9691,0.43469 2.30902,0.98469 0.78218,1.2656 -0.54163,1.2656 -2.5,0 z m 10.44113,-1.4682 c -1.06762,-0.8075 -1.46464,-1.4825 -0.88226,-1.5 0.58238,-0.0175 1.93238,0.62889 3,1.4364 1.06762,0.8075 1.46464,1.48251 0.88226,1.5 -0.58238,0.0175 -1.93238,-0.62889 -3,-1.4364 z M 205,499.86218 c -1.925,-1.05389 -3.21746,-1.93503 -2.87212,-1.95808 1.03489,-0.0691 7.87212,2.94604 7.87212,3.4715 0,0.87215 -1.4372,0.43713 -5,-1.51342 z m 158.0143,-0.76183 c -4.50279,-2.21707 -1.73802,-2.85633 3.28198,-0.75884 2.03705,0.85113 3.70372,1.76647 3.70372,2.03409 0,1.03218 -3.65424,0.3651 -6.9857,-1.27525 z M 322,497.86218 c 0,-0.55 0.45,-1 1,-1 0.55,0 1,0.45 1,1 0,0.55 -0.45,1 -1,1 -0.55,0 -1,-0.45 -1,-1 z m -126.55887,-2.55517 c -1.83031,-1.46637 -1.7984,-1.48719 0.55887,-0.36454 3.06103,1.45781 3.62834,1.91971 2.3578,1.91971 -0.53655,0 -1.84905,-0.69982 -2.91667,-1.55517 z M 330,495.36218 c 0,-0.825 0.45,-1.5 1,-1.5 0.55,0 1,0.675 1,1.5 0,0.825 -0.45,1.5 -1,1.5 -0.55,0 -1,-0.675 -1,-1.5 z m -132.25,-3.23287 c -2.0625,-0.84619 -3.75,-1.9366 -3.75,-2.42315 0,-0.72012 7.42012,2.42458 8.91667,3.77894 0.84058,0.76072 -1.51358,0.14296 -5.16667,-1.35579 z m 291.70888,-7.33366 c -0.36253,-0.58659 -0.4085,-1.31719 -0.10214,-1.62354 0.82264,-0.82264 3.64326,0.46152 3.64326,1.65869 0,1.35725 -2.69711,1.33048 -3.54112,-0.0351 z M 310.5,477.86218 c -0.33992,-0.55 -0.16803,-1 0.38197,-1 0.55,0 1.27811,0.45 1.61803,1 0.33992,0.55 0.16803,1 -0.38197,1 -0.55,0 -1.27811,-0.45 -1.61803,-1 z M 264,476.4212 c 0,-1.05548 1.91911,-1.49891 2.48992,-0.57533 0.34546,0.55897 -0.0734,1.01631 -0.9309,1.01631 -0.85746,0 -1.55902,-0.19844 -1.55902,-0.44098 z m 32.65086,-2.6946 c -1.01703,-0.59112 -3.19736,-0.80512 -4.84518,-0.47556 -2.4014,0.48028 -3.09528,0.2197 -3.49608,-1.31294 -0.44967,-1.71954 -2.11945,-2.70264 -7.5596,-4.4508 -0.9625,-0.30929 -1.75,-1.02647 -1.75,-1.59373 0,-1.33087 2.68974,-1.34242 3.51008,-0.0151 0.34546,0.55897 1.00954,0.78058 1.47572,0.49246 0.91522,-0.56563 11.62692,3.77569 16.5142,6.693 2.97014,1.77293 2.97512,1.79049 0.5,1.76408 -1.375,-0.0147 -3.33211,-0.51031 -4.34914,-1.10143 z M 383,473.86218 c -0.90129,-0.58246 -1.02463,-0.97549 -0.30902,-0.98469 0.65504,-0.008 1.4691,0.43469 1.80902,0.98469 0.7673,1.24153 0.42112,1.24153 -1.5,0 z m -5.5,-2 c -0.33992,-0.55 -0.14148,-1 0.44098,-1 0.58246,0 1.05902,0.45 1.05902,1 0,0.55 -0.19844,1 -0.44098,1 -0.24254,0 -0.7191,-0.45 -1.05902,-1 z m 74.5,-2 c -0.90129,-0.58246 -1.02463,-0.97549 -0.30902,-0.98469 0.65504,-0.008 1.4691,0.43469 1.80902,0.98469 0.7673,1.24153 0.42112,1.24153 -1.5,0 z m -183,-7.67846 c -2.48631,-1.47424 -2.48101,-1.47908 0.96875,-0.8832 1.90781,0.32954 3.91031,1.04072 4.45,1.58041 1.53561,1.53561 -2.5368,1.01163 -5.41875,-0.69721 z m 84.5,0.67846 c -1.31874,-0.56668 -1.48906,-0.87815 -0.5,-0.9144 0.825,-0.0302 2.175,0.38124 3,0.9144 1.82797,1.18132 0.24909,1.18132 -2.5,0 z m -8.36633,-2.63191 c -1.85148,-0.80782 -3.10341,-1.73168 -2.78207,-2.05303 0.78335,-0.78334 6.6484,1.69227 6.6484,2.80626 0,0.48327 -0.1125,0.84197 -0.25,0.79711 -0.1375,-0.0449 -1.76485,-0.74252 -3.61633,-1.55034 z M 261,458.86218 c 0,-0.55 0.42344,-1 0.94098,-1 0.51754,0 1.2191,0.45 1.55902,1 0.33992,0.55 -0.0835,1 -0.94098,1 -0.85746,0 -1.55902,-0.45 -1.55902,-1 z m -6.55887,-2.4682 c -1.55186,-1.17377 -1.62852,-1.47457 -0.38226,-1.5 0.85738,-0.0175 2.43238,0.62889 3.5,1.4364 1.55186,1.17377 1.62852,1.47457 0.38226,1.5 -0.85738,0.0175 -2.43238,-0.62889 -3.5,-1.4364 z M 334,455.86218 c -1.2819,-0.82843 -1.24555,-0.9716 0.25,-0.98469 0.9625,-0.008 1.75,0.43469 1.75,0.98469 0,1.21961 -0.11279,1.21961 -2,0 z m -29.36052,-8.69385 c -1.12618,-1.12619 -0.68589,-2.30615 0.86052,-2.30615 0.825,0 1.5,0.42344 1.5,0.94098 0,1.26098 -1.56159,2.1641 -2.36052,1.36517 z"
         id="path2724"
         inkscape:connector-curvature="0" />
      <path
         style="fill:#54201b"
         d="m 385.65512,615.61218 c -0.31642,-2.8875 -0.59069,-10.06766 -0.60948,-15.95591 l -0.0342,-10.7059 4.24427,-2.88497 c 6.5271,-4.43668 22.52227,-11.42387 27.41385,-11.97523 l 4.38255,-0.49397 -0.27607,15.82102 -0.27607,15.82101 -7,3.62557 c -3.85,1.99405 -9.475,4.48611 -12.5,5.53791 -3.025,1.05179 -6.89248,2.93568 -8.59439,4.18641 -4.87364,3.58162 -6.09067,3.0451 -6.75049,-2.97594 z m 43.16261,-17 c -0.72471,-3.92516 -0.99867,-26.60456 -0.3462,-28.66029 0.78797,-2.48268 12.69781,-11.38047 18.5894,-13.88806 5.59374,-2.38082 12.61434,-3.53609 13.43358,-2.21054 1.05405,1.70549 1.46822,29.21001 0.468,31.07894 -0.52023,0.97206 -2.27849,2.06008 -3.90723,2.41781 -1.62875,0.35773 -4.041,1.49967 -5.36056,2.53763 -1.31955,1.03796 -4.82819,2.84236 -7.79696,4.00976 -2.96877,1.16741 -6.83024,3.21205 -8.58104,4.54365 -3.97133,3.02047 -5.96322,3.07291 -6.49899,0.1711 z m 39.84894,-18.41667 c -1.233,-1.233 -0.7115,-27.68294 0.59807,-30.33333 2.11744,-4.28541 24.79426,-14.31764 27.95208,-12.366 0.43075,0.26622 0.78318,6.96086 0.78318,14.87698 l 0,14.39294 -4.25,2.91104 c -2.3375,1.60108 -5.375,3.249 -6.75,3.66206 -1.375,0.41306 -4.075,1.71221 -6,2.887 -3.12505,1.90716 -9.53841,4.58105 -11.08333,4.62092 -0.32084,0.008 -0.88334,-0.28494 -1.25,-0.65161 z m -82.12766,-6.58333 c -0.21902,-0.6875 -0.58094,-8.31432 -0.80428,-16.94849 l -0.40607,-15.6985 4.08567,-2.84671 c 4.43645,-3.09112 5.92191,-3.80824 18.39174,-8.87882 10.68895,-4.34643 12.18706,-4.36206 12.21662,-0.12748 0.0125,1.7875 0.45765,8.84491 0.98926,15.68313 0.85546,11.00381 0.77755,12.64199 -0.67768,14.25 -0.90433,0.99928 -2.06952,1.81687 -2.58929,1.81687 -0.51978,0 -7.44266,3.15 -15.3842,7 -7.94153,3.85 -14.66064,7 -14.93135,7 -0.27071,0 -0.6714,-0.5625 -0.89042,-1.25 z m 42.07819,-21.91034 c -0.29273,-2.38682 -0.7354,-9.88395 -0.98371,-16.6603 l -0.45148,-12.32064 5.16576,-3.30449 c 4.64959,-2.9743 22.59698,-9.55423 26.06011,-9.55423 1.40195,0 1.49367,0.70318 3.13597,24.04238 l 0.6011,8.54237 -5.32248,1.34259 c -5.54857,1.39963 -18.21417,7.21704 -20.8178,9.56178 -0.82757,0.74528 -2.70855,1.65546 -4.17995,2.02262 -2.54157,0.6342 -2.70189,0.45067 -3.20752,-3.67208 z m 40.86056,-14.87564 c -0.3798,-0.61453 -0.83404,-5.02034 -1.00942,-9.79068 -0.17538,-4.77034 -0.63548,-10.57634 -1.02244,-12.90224 -0.94345,-5.67069 0.72067,-7.97288 8.67539,-12.00177 6.59162,-3.3385 20.00053,-8.48084 20.58645,-7.89493 0.18279,0.1828 0.59463,5.01083 0.91519,10.72898 1.09159,19.47145 0.98845,20.89662 -1.5123,20.89662 -2.01662,0 -17.6019,7.35222 -20.11063,9.48702 -2.29402,1.95209 -5.74555,2.73371 -6.52224,1.477 z"
         id="path2722"
         inkscape:connector-curvature="0" />
      <path
         style="fill:#321613"
         d="m 387,611.19551 c 0,-0.91666 0.27857,-1.38809 0.61905,-1.04762 0.7568,0.7568 2.75944,-1.16914 3.64323,-3.50368 1.01651,-2.68513 -0.93851,-3.06598 -2.8169,-0.54876 -1.20833,1.61928 -1.51668,1.75178 -1.07953,0.46388 0.33657,-0.99156 0.15889,-4.99724 -0.39483,-8.9015 -0.88829,-6.26327 -0.79873,-7.33126 0.7611,-9.07519 2.02721,-2.26646 16.92083,-9.69894 19.46118,-9.71185 1.98432,-0.0101 4.8067,3.65115 4.8067,6.23534 0,0.98941 1.09556,3.47678 2.43458,5.52749 3.78334,5.79419 6.03518,12.1588 4.75484,13.43914 -1.06498,1.06498 -9.28182,-0.50931 -11.68942,-2.23961 -0.55,-0.39527 -3.22657,-1.04138 -5.94793,-1.43578 -4.4365,-0.64298 -4.81257,-0.554 -3.63833,0.86087 2.06389,2.48684 0.50938,5.97165 -3.97293,8.90631 C 389.21749,613.25699 387,613.58637 387,611.19551 Z m 43.51791,-24.118 c -0.71266,-2.83947 -0.66992,-2.91173 1.98209,-3.35116 2.24458,-0.37192 2.69881,0.49654 1.9078,3.64757 -0.73139,2.91356 -3.13012,2.73077 -3.88989,-0.29641 z m 21.56319,-4.78194 c -3.53039,-1.35786 -7.06374,-3.00402 -7.85188,-3.65812 -0.78815,-0.6541 -4.30967,-1.20862 -7.82562,-1.23227 l -6.39263,-0.043 -0.005,-4.07569 c -0.006,-4.48521 1.09139,-5.83377 9.1747,-11.27429 6.72552,-4.52665 7.92897,-4.22118 10.68265,2.71156 1.28052,3.22387 4.08523,8.183 6.23269,11.02029 3.52365,4.65554 5.103,9.19624 3.15448,9.06925 -0.4125,-0.0269 -3.6385,-1.15986 -7.1689,-2.51773 z m 18.0349,-12.68339 -0.116,-4.75 3.5,0 c 1.925,0 3.5,0.45 3.5,1 0,0.55 0.675,1 1.5,1 0.825,0 1.5,0.6199 1.5,1.37756 0,2.27634 -2.79358,3.87973 -5.95197,3.41618 -2.1119,-0.30996 -3.09249,0.0181 -3.39316,1.13516 -0.23258,0.8641 -0.47507,-0.5664 -0.53887,-3.1789 z M 482,561.68186 c -3.575,-1.1151 -7.74191,-2.25743 -9.2598,-2.53851 -1.81568,-0.33622 -2.95824,-1.30174 -3.3399,-2.82238 -0.98836,-3.93792 1.67731,-7.7448 7.48244,-10.68577 5.76056,-2.91839 7.11726,-2.84365 7.11726,0.39209 0,1.1259 1.35,3.7516 3,5.83489 1.65,2.08329 3.01001,4.17305 3.02224,4.6439 0.0122,0.47086 0.90222,1.9811 1.97776,3.3561 1.07554,1.375 1.96553,2.8375 1.97776,3.25 0.0386,1.30141 -5.24118,0.67093 -11.97776,-1.43032 z m -69.5,-5.53448 c -12.71117,-5.36203 -16.0293,-6.52671 -20.35871,-7.146 -3.75771,-0.53752 -4.62491,-1.09007 -5.41073,-3.44752 -0.7351,-2.20531 -0.55408,-3.22921 0.84407,-4.77414 2.58828,-2.86002 13.69459,-8.07707 17.58483,-8.26024 2.99648,-0.1411 3.56602,0.28955 5.52977,4.18129 1.20408,2.38622 3.76271,6.66122 5.68583,9.5 3.13002,4.62029 4.08002,7.52231 3.73563,11.41141 -0.14263,1.61069 -0.46876,1.54792 -7.61069,-1.4648 z m 17.732,-12.2852 c 0,-1.925 0.2058,-2.7125 0.45733,-1.75 0.25152,0.9625 0.25152,2.5375 0,3.5 -0.25153,0.9625 -0.45733,0.175 -0.45733,-1.75 z m 18.268,-7.19016 c -6.05,-2.06831 -12.4074,-3.77165 -14.12756,-3.7852 -3.60549,-0.0284 -5.11352,-1.48005 -5.96613,-5.74307 -0.52151,-2.60758 -0.13113,-3.38967 2.81274,-5.63507 3.35112,-2.55603 10.68894,-5.6465 13.40668,-5.6465 0.75585,0 1.37427,0.95309 1.37427,2.11798 0,1.1649 1.40629,3.71967 3.1251,5.67728 1.7188,1.95761 3.73247,5.01294 4.47481,6.78962 0.74235,1.77669 2.5227,4.153 3.95633,5.2807 1.43363,1.12769 2.45746,2.64761 2.27518,3.37758 -0.24997,1.00104 -3.03494,0.40299 -11.33142,-2.43332 z M 482,516.69215 c -4.125,-1.10563 -8.76193,-2.24934 -10.3043,-2.54157 -2.44533,-0.46332 -2.76535,-0.92864 -2.5,-3.63515 0.23808,-2.42842 1.17471,-3.5997 4.3043,-5.38267 5.27895,-3.00748 7.9851,-2.65601 8.04739,1.04518 0.0452,2.68503 1.72262,4.63588 4.01455,4.66893 0.94228,0.0136 3.70324,3.22785 5.81122,6.76531 0.97716,1.6398 -0.2848,1.51593 -9.37316,-0.92003 z"
         id="path2720"
         inkscape:connector-curvature="0" />
    </g>
  </g>
</svg>
